<?xml version="1.0" encoding="UTF-8" standalone="no"?>
<!DOCTYPE svg PUBLIC "-//W3C//DTD SVG 1.1//EN"
 "http://www.w3.org/Graphics/SVG/1.1/DTD/svg11.dtd">
<!-- Generated by graphviz version 2.40.1 (20161225.0304)
 -->
<!-- Title: state transitions Pages: 1 -->
<svg width="1708pt" height="1140pt"
 viewBox="0.00 0.00 1708.00 1140.00" xmlns="http://www.w3.org/2000/svg" xmlns:xlink="http://www.w3.org/1999/xlink">
<g id="graph0" class="graph" transform="scale(1 1) rotate(0) translate(4 1136)">
<title>state transitions</title>
<polygon fill="#ffffff" stroke="transparent" points="-4,4 -4,-1136 1704,-1136 1704,4 -4,4"/>
<g id="clust1" class="cluster state regular">
<title>cluster_next_state</title>
<path fill="none" stroke="#000000" stroke-width="2" d="M20,-8C20,-8 1680,-8 1680,-8 1686,-8 1692,-14 1692,-20 1692,-20 1692,-1112 1692,-1112 1692,-1118 1686,-1124 1680,-1124 1680,-1124 20,-1124 20,-1124 14,-1124 8,-1118 8,-1112 8,-1112 8,-20 8,-20 8,-14 14,-8 20,-8"/>
<text text-anchor="start" x="822.8208" y="-1105.2" font-family="Helvetica,sans-Serif" font-size="12.00" fill="#000000">next_state</text>
</g>
<!-- next_state -->
<!-- INIT -->
<g id="node2" class="node state regular">
<title>INIT</title>
<polygon fill="#ffffff" fill-opacity="0.003922" stroke="transparent" stroke-width="2" points="878,-1086 822,-1086 822,-1050 878,-1050 878,-1086"/>
<text text-anchor="start" x="838.6684" y="-1064.2" font-family="Helvetica,sans-Serif" font-size="12.00" fill="#000000">INIT</text>
<path fill="none" stroke="#000000" stroke-width="2" d="M834.3333,-1051C834.3333,-1051 865.6667,-1051 865.6667,-1051 871.3333,-1051 877,-1056.6667 877,-1062.3333 877,-1062.3333 877,-1073.6667 877,-1073.6667 877,-1079.3333 871.3333,-1085 865.6667,-1085 865.6667,-1085 834.3333,-1085 834.3333,-1085 828.6667,-1085 823,-1079.3333 823,-1073.6667 823,-1073.6667 823,-1062.3333 823,-1062.3333 823,-1056.6667 828.6667,-1051 834.3333,-1051"/>
</g>
<!-- IDLE -->
<g id="node3" class="node state regular">
<title>IDLE</title>
<polygon fill="#ffffff" fill-opacity="0.003922" stroke="transparent" stroke-width="2" points="878,-998 822,-998 822,-962 878,-962 878,-998"/>
<text text-anchor="start" x="836.6644" y="-976.2" font-family="Helvetica,sans-Serif" font-size="12.00" fill="#000000">IDLE</text>
<path fill="none" stroke="#000000" stroke-width="2" d="M834.3333,-963C834.3333,-963 865.6667,-963 865.6667,-963 871.3333,-963 877,-968.6667 877,-974.3333 877,-974.3333 877,-985.6667 877,-985.6667 877,-991.3333 871.3333,-997 865.6667,-997 865.6667,-997 834.3333,-997 834.3333,-997 828.6667,-997 823,-991.3333 823,-985.6667 823,-985.6667 823,-974.3333 823,-974.3333 823,-968.6667 828.6667,-963 834.3333,-963"/>
</g>
<!-- INIT&#45;&gt;IDLE -->
<g id="edge1" class="edge transition">
<title>INIT&#45;&gt;IDLE</title>
<path fill="none" stroke="#000000" d="M829.1605,-1049.8838C822.1606,-1041.5719 816.8785,-1031.2896 820.221,-1021 821.8441,-1016.0033 824.3305,-1011.1067 827.189,-1006.5354"/>
<polygon fill="#000000" stroke="#000000" points="830.1522,-1008.4053 833.0156,-998.2047 824.416,-1004.3933 830.1522,-1008.4053"/>
<text text-anchor="middle" x="821.3895" y="-1024" font-family="Helvetica,sans-Serif" font-size="10.00" fill="#000000"> </text>
</g>
<!-- IDLE&#45;&gt;INIT -->
<g id="edge2" class="edge transition">
<title>IDLE&#45;&gt;INIT</title>
<path fill="none" stroke="#000000" d="M850,-998.2103C850,-1010.1224 850,-1025.9321 850,-1039.4917"/>
<polygon fill="#000000" stroke="#000000" points="846.5001,-1039.7663 850,-1049.7663 853.5001,-1039.7664 846.5001,-1039.7663"/>
<text text-anchor="start" x="850" y="-1024" font-family="Helvetica,sans-Serif" font-size="10.00" fill="#000000">empty_6 == 1&#39;b1 &#160;&#160;</text>
</g>
<!-- IDLE&#45;&gt;INIT -->
<g id="edge3" class="edge transition">
<title>IDLE&#45;&gt;INIT</title>
<path fill="none" stroke="#000000" d="M878.0467,-985.2383C909.8425,-992.5047 955.1725,-1007.6892 938,-1033 926.7842,-1049.5311 906.3923,-1058.2545 888.0608,-1062.8577"/>
<polygon fill="#000000" stroke="#000000" points="887.1858,-1059.4661 878.16,-1065.0145 888.6759,-1066.3057 887.1858,-1059.4661"/>
<text text-anchor="start" x="941" y="-1024" font-family="Helvetica,sans-Serif" font-size="10.00" fill="#000000">empty_9 == 1&#39;b1 &#160;&#160;</text>
</g>
<!-- IDLE&#45;&gt;IDLE -->
<g id="edge6" class="edge transition">
<title>IDLE&#45;&gt;IDLE</title>
<path fill="none" stroke="#000000" d="M878.0183,-985.9381C889.888,-986.3856 900,-984.4063 900,-980 900,-976.9707 895.2205,-975.0885 888.3762,-974.3533"/>
<polygon fill="#000000" stroke="#000000" points="888.1128,-970.8446 878.0183,-974.0619 887.9158,-977.8419 888.1128,-970.8446"/>
<text text-anchor="start" x="900" y="-995" font-family="Helvetica,sans-Serif" font-size="10.00" fill="#000000">not (empty_6 == 1&#39;b1) &#160;&#160;</text>
<text text-anchor="start" x="900" y="-983" font-family="Helvetica,sans-Serif" font-size="10.00" fill="#000000">not (empty_9 == 1&#39;b1) &#160;&#160;</text>
<text text-anchor="start" x="900" y="-971" font-family="Helvetica,sans-Serif" font-size="10.00" fill="#000000">not (choose == 3&#39;d1) &#160;&#160;</text>
<text text-anchor="start" x="900" y="-959" font-family="Helvetica,sans-Serif" font-size="10.00" fill="#000000">not (choose == 3&#39;d2) &#160;&#160;</text>
</g>
<!-- S6_0 -->
<g id="node4" class="node state regular">
<title>S6_0</title>
<polygon fill="#ffffff" fill-opacity="0.003922" stroke="transparent" stroke-width="2" points="168,-898 112,-898 112,-862 168,-862 168,-898"/>
<text text-anchor="start" x="125.9924" y="-876.2" font-family="Helvetica,sans-Serif" font-size="12.00" fill="#000000">S6_0</text>
<path fill="none" stroke="#000000" stroke-width="2" d="M124.3333,-863C124.3333,-863 155.6667,-863 155.6667,-863 161.3333,-863 167,-868.6667 167,-874.3333 167,-874.3333 167,-885.6667 167,-885.6667 167,-891.3333 161.3333,-897 155.6667,-897 155.6667,-897 124.3333,-897 124.3333,-897 118.6667,-897 113,-891.3333 113,-885.6667 113,-885.6667 113,-874.3333 113,-874.3333 113,-868.6667 118.6667,-863 124.3333,-863"/>
</g>
<!-- IDLE&#45;&gt;S6_0 -->
<g id="edge4" class="edge transition">
<title>IDLE&#45;&gt;S6_0</title>
<path fill="none" stroke="#000000" d="M821.8197,-979.1609C724.6224,-976.068 403.9023,-964.1553 304.305,-939 277.9303,-932.3385 273.4767,-924.5361 248,-915 224.998,-906.3902 198.8002,-897.8696 177.9676,-891.3912"/>
<polygon fill="#000000" stroke="#000000" points="178.7965,-887.9843 168.2092,-888.3836 176.7346,-894.6738 178.7965,-887.9843"/>
<text text-anchor="start" x="304" y="-924" font-family="Helvetica,sans-Serif" font-size="10.00" fill="#000000">choose == 3&#39;d1 &#160;&#160;</text>
</g>
<!-- S9_0 -->
<g id="node15" class="node state regular">
<title>S9_0</title>
<polygon fill="#ffffff" fill-opacity="0.003922" stroke="transparent" stroke-width="2" points="941,-898 885,-898 885,-862 941,-862 941,-898"/>
<text text-anchor="start" x="898.9924" y="-876.2" font-family="Helvetica,sans-Serif" font-size="12.00" fill="#000000">S9_0</text>
<path fill="none" stroke="#000000" stroke-width="2" d="M897.3333,-863C897.3333,-863 928.6667,-863 928.6667,-863 934.3333,-863 940,-868.6667 940,-874.3333 940,-874.3333 940,-885.6667 940,-885.6667 940,-891.3333 934.3333,-897 928.6667,-897 928.6667,-897 897.3333,-897 897.3333,-897 891.6667,-897 886,-891.3333 886,-885.6667 886,-885.6667 886,-874.3333 886,-874.3333 886,-868.6667 891.6667,-863 897.3333,-863"/>
</g>
<!-- IDLE&#45;&gt;S9_0 -->
<g id="edge5" class="edge transition">
<title>IDLE&#45;&gt;S9_0</title>
<path fill="none" stroke="#000000" d="M861.5552,-961.6585C871.2351,-946.2935 885.1837,-924.1529 896.1152,-906.8012"/>
<polygon fill="#000000" stroke="#000000" points="899.149,-908.5518 901.5181,-898.2253 893.2263,-904.8205 899.149,-908.5518"/>
<text text-anchor="start" x="890" y="-924" font-family="Helvetica,sans-Serif" font-size="10.00" fill="#000000">choose == 3&#39;d2 &#160;&#160;</text>
</g>
<!-- S6_0&#45;&gt;IDLE -->
<g id="edge7" class="edge transition">
<title>S6_0&#45;&gt;IDLE</title>
<path fill="none" stroke="#000000" d="M168.1224,-883.48C227.5401,-890.9177 362.0497,-908.2344 382,-915 402.6825,-922.0139 404.062,-932.396 424.879,-939 496.5183,-961.7269 721.2848,-974.1701 811.7352,-978.3649"/>
<polygon fill="#000000" stroke="#000000" points="811.6806,-981.8659 821.8295,-978.8245 811.9991,-974.8731 811.6806,-981.8659"/>
<text text-anchor="start" x="424" y="-924" font-family="Helvetica,sans-Serif" font-size="10.00" fill="#000000">reconfirm == 1&#39;b1 &#160;&#160;</text>
</g>
<!-- S6_0&#45;&gt;IDLE -->
<g id="edge11" class="edge transition">
<title>S6_0&#45;&gt;IDLE</title>
<path fill="none" stroke="#000000" d="M131.4236,-898.0764C126.6276,-911.1331 123.4278,-928.2873 133.545,-939 156.9906,-963.8257 665.8548,-976.2022 811.4203,-979.2431"/>
<polygon fill="#000000" stroke="#000000" points="811.5827,-982.7471 821.6527,-979.4539 811.727,-975.7486 811.5827,-982.7471"/>
<text text-anchor="start" x="133" y="-930" font-family="Helvetica,sans-Serif" font-size="10.00" fill="#000000">not (reconfirm == 1&#39;b1) &#160;&#160;</text>
<text text-anchor="start" x="133" y="-918" font-family="Helvetica,sans-Serif" font-size="10.00" fill="#000000">not (time_out == 1&#39;b0) &#160;&#160;</text>
</g>
<!-- S6_0&#45;&gt;S6_0 -->
<g id="edge10" class="edge transition">
<title>S6_0&#45;&gt;S6_0</title>
<path fill="none" stroke="#000000" d="M168.0183,-884.8247C179.888,-885.1883 190,-883.5801 190,-880 190,-877.5387 185.2205,-876.0094 178.3762,-875.4121"/>
<polygon fill="#000000" stroke="#000000" points="178.0957,-871.9049 168.0183,-875.1753 177.9356,-878.903 178.0957,-871.9049"/>
<text text-anchor="start" x="190" y="-889" font-family="Helvetica,sans-Serif" font-size="10.00" fill="#000000">not (din == 3&#39;d1) &#160;&#160;</text>
<text text-anchor="start" x="190" y="-877" font-family="Helvetica,sans-Serif" font-size="10.00" fill="#000000">not (din == 3&#39;d5) &#160;&#160;</text>
<text text-anchor="start" x="190" y="-865" font-family="Helvetica,sans-Serif" font-size="10.00" fill="#000000">time_out == 1&#39;b0 &#160;&#160;</text>
</g>
<!-- S6_1 -->
<g id="node5" class="node state regular">
<title>S6_1</title>
<polygon fill="#ffffff" fill-opacity="0.003922" stroke="transparent" stroke-width="2" points="216,-804 160,-804 160,-768 216,-768 216,-804"/>
<text text-anchor="start" x="173.9924" y="-782.2" font-family="Helvetica,sans-Serif" font-size="12.00" fill="#000000">S6_1</text>
<path fill="none" stroke="#000000" stroke-width="2" d="M172.3333,-769C172.3333,-769 203.6667,-769 203.6667,-769 209.3333,-769 215,-774.6667 215,-780.3333 215,-780.3333 215,-791.6667 215,-791.6667 215,-797.3333 209.3333,-803 203.6667,-803 203.6667,-803 172.3333,-803 172.3333,-803 166.6667,-803 161,-797.3333 161,-791.6667 161,-791.6667 161,-780.3333 161,-780.3333 161,-774.6667 166.6667,-769 172.3333,-769"/>
</g>
<!-- S6_0&#45;&gt;S6_1 -->
<g id="edge8" class="edge transition">
<title>S6_0&#45;&gt;S6_1</title>
<path fill="none" stroke="#000000" d="M149.2549,-861.8759C156.2937,-848.0915 166.0952,-828.8968 174.0786,-813.2627"/>
<polygon fill="#000000" stroke="#000000" points="177.3428,-814.5663 178.7735,-804.0685 171.1086,-811.3828 177.3428,-814.5663"/>
<text text-anchor="start" x="169" y="-836" font-family="Helvetica,sans-Serif" font-size="10.00" fill="#000000">din == 3&#39;d1 &#160;&#160;</text>
<text text-anchor="start" x="169" y="-824" font-family="Helvetica,sans-Serif" font-size="10.00" fill="#000000">time_out == 1&#39;b0 &#160;&#160;</text>
</g>
<!-- S6_5 -->
<g id="node9" class="node state regular">
<title>S6_5</title>
<polygon fill="#ffffff" fill-opacity="0.003922" stroke="transparent" stroke-width="2" points="139,-428 83,-428 83,-392 139,-392 139,-428"/>
<text text-anchor="start" x="96.9924" y="-406.2" font-family="Helvetica,sans-Serif" font-size="12.00" fill="#000000">S6_5</text>
<path fill="none" stroke="#000000" stroke-width="2" d="M95.3333,-393C95.3333,-393 126.6667,-393 126.6667,-393 132.3333,-393 138,-398.6667 138,-404.3333 138,-404.3333 138,-415.6667 138,-415.6667 138,-421.3333 132.3333,-427 126.6667,-427 126.6667,-427 95.3333,-427 95.3333,-427 89.6667,-427 84,-421.3333 84,-415.6667 84,-415.6667 84,-404.3333 84,-404.3333 84,-398.6667 89.6667,-393 95.3333,-393"/>
</g>
<!-- S6_0&#45;&gt;S6_5 -->
<g id="edge9" class="edge transition">
<title>S6_0&#45;&gt;S6_5</title>
<path fill="none" stroke="#000000" d="M138.2619,-861.8061C136.7916,-839.0151 136.5876,-799.1719 149,-768 157.6535,-746.268 163.6324,-741.4841 182,-727 189.3371,-721.2142 191.9604,-720.3652 201,-718 213.3915,-714.7578 307.2628,-719.3661 316,-710 326.9141,-698.3003 326.6906,-685.9042 316,-674 310.1085,-667.4397 166.2021,-660.7011 158.199,-657 123.6156,-641.0067 96,-636.1024 96,-598 96,-598 96,-598 96,-457 96,-450.7447 97.2208,-444.2334 98.9658,-438.1212"/>
<polygon fill="#000000" stroke="#000000" points="102.3897,-438.9215 102.2744,-428.3273 95.7579,-436.681 102.3897,-438.9215"/>
<text text-anchor="start" x="158" y="-648" font-family="Helvetica,sans-Serif" font-size="10.00" fill="#000000">din == 3&#39;d5 &#160;&#160;</text>
<text text-anchor="start" x="158" y="-636" font-family="Helvetica,sans-Serif" font-size="10.00" fill="#000000">time_out == 1&#39;b0 &#160;&#160;</text>
</g>
<!-- S6_1&#45;&gt;IDLE -->
<g id="edge12" class="edge transition">
<title>S6_1&#45;&gt;IDLE</title>
<path fill="none" stroke="#000000" d="M216.1628,-797.5535C229.2104,-803.5734 244.5453,-811.6375 257,-821 294.4216,-849.1308 286.8504,-877.3768 328.879,-898 347.2237,-907.0017 494.3417,-904.7168 512,-915 527.4488,-923.9966 519.5903,-938.9365 535,-948 558.3617,-961.7406 732.6874,-973.3023 811.5046,-977.887"/>
<polygon fill="#000000" stroke="#000000" points="811.7825,-981.4086 821.9665,-978.4871 812.1834,-974.4201 811.7825,-981.4086"/>
<text text-anchor="start" x="328" y="-877" font-family="Helvetica,sans-Serif" font-size="10.00" fill="#000000">reconfirm == 1&#39;b1 &#160;&#160;</text>
</g>
<!-- S6_1&#45;&gt;IDLE -->
<g id="edge16" class="edge transition">
<title>S6_1&#45;&gt;IDLE</title>
<path fill="none" stroke="#000000" d="M216.2568,-797.5023C258.3937,-814.6539 332.8136,-844.9435 333,-845 369.0365,-855.92 382.1291,-845.5489 416,-862 438.2808,-872.8218 436.5327,-886.642 458.545,-898 485.6377,-911.9794 497.5817,-901.6706 525,-915 546.6658,-925.5328 545.6621,-938.9799 568,-948 611.3681,-965.5122 745.4968,-974.6491 811.9244,-978.2019"/>
<polygon fill="#000000" stroke="#000000" points="811.8118,-981.7007 821.98,-978.7246 812.1752,-974.7102 811.8118,-981.7007"/>
<text text-anchor="start" x="458" y="-883" font-family="Helvetica,sans-Serif" font-size="10.00" fill="#000000">not (reconfirm == 1&#39;b1) &#160;&#160;</text>
<text text-anchor="start" x="458" y="-871" font-family="Helvetica,sans-Serif" font-size="10.00" fill="#000000">not (time_out == 1&#39;b0) &#160;&#160;</text>
</g>
<!-- S6_1&#45;&gt;S6_1 -->
<g id="edge15" class="edge transition">
<title>S6_1&#45;&gt;S6_1</title>
<path fill="none" stroke="#000000" d="M216.0183,-790.8247C227.888,-791.1883 238,-789.5801 238,-786 238,-783.5387 233.2205,-782.0094 226.3762,-781.4121"/>
<polygon fill="#000000" stroke="#000000" points="226.0957,-777.9049 216.0183,-781.1753 225.9356,-784.903 226.0957,-777.9049"/>
<text text-anchor="start" x="238" y="-795" font-family="Helvetica,sans-Serif" font-size="10.00" fill="#000000">not (din == 3&#39;d1) &#160;&#160;</text>
<text text-anchor="start" x="238" y="-783" font-family="Helvetica,sans-Serif" font-size="10.00" fill="#000000">not (din == 3&#39;d5) &#160;&#160;</text>
<text text-anchor="start" x="238" y="-771" font-family="Helvetica,sans-Serif" font-size="10.00" fill="#000000">time_out == 1&#39;b0 &#160;&#160;</text>
</g>
<!-- S6_2 -->
<g id="node6" class="node state regular">
<title>S6_2</title>
<polygon fill="#ffffff" fill-opacity="0.003922" stroke="transparent" stroke-width="2" points="451,-710 395,-710 395,-674 451,-674 451,-710"/>
<text text-anchor="start" x="408.9924" y="-688.2" font-family="Helvetica,sans-Serif" font-size="12.00" fill="#000000">S6_2</text>
<path fill="none" stroke="#000000" stroke-width="2" d="M407.3333,-675C407.3333,-675 438.6667,-675 438.6667,-675 444.3333,-675 450,-680.6667 450,-686.3333 450,-686.3333 450,-697.6667 450,-697.6667 450,-703.3333 444.3333,-709 438.6667,-709 438.6667,-709 407.3333,-709 407.3333,-709 401.6667,-709 396,-703.3333 396,-697.6667 396,-697.6667 396,-686.3333 396,-686.3333 396,-680.6667 401.6667,-675 407.3333,-675"/>
</g>
<!-- S6_1&#45;&gt;S6_2 -->
<g id="edge13" class="edge transition">
<title>S6_1&#45;&gt;S6_2</title>
<path fill="none" stroke="#000000" d="M201.7219,-767.8696C213.1176,-754.2393 230.5909,-736.3663 250.199,-727 301.9038,-702.302 322.5721,-724.5301 378,-710 380.4214,-709.3652 382.8878,-708.6349 385.356,-707.8398"/>
<polygon fill="#000000" stroke="#000000" points="386.523,-711.1396 394.7931,-704.5172 384.1983,-704.5369 386.523,-711.1396"/>
<text text-anchor="start" x="250" y="-742" font-family="Helvetica,sans-Serif" font-size="10.00" fill="#000000">din == 3&#39;d1 &#160;&#160;</text>
<text text-anchor="start" x="250" y="-730" font-family="Helvetica,sans-Serif" font-size="10.00" fill="#000000">time_out == 1&#39;b0 &#160;&#160;</text>
</g>
<!-- S6_6 -->
<g id="node10" class="node state regular">
<title>S6_6</title>
<polygon fill="#ffffff" fill-opacity="0.003922" stroke="transparent" stroke-width="2" points="387,-334 331,-334 331,-298 387,-298 387,-334"/>
<text text-anchor="start" x="344.9924" y="-312.2" font-family="Helvetica,sans-Serif" font-size="12.00" fill="#000000">S6_6</text>
<path fill="none" stroke="#000000" stroke-width="2" d="M343.3333,-299C343.3333,-299 374.6667,-299 374.6667,-299 380.3333,-299 386,-304.6667 386,-310.3333 386,-310.3333 386,-321.6667 386,-321.6667 386,-327.3333 380.3333,-333 374.6667,-333 374.6667,-333 343.3333,-333 343.3333,-333 337.6667,-333 332,-327.3333 332,-321.6667 332,-321.6667 332,-310.3333 332,-310.3333 332,-304.6667 337.6667,-299 343.3333,-299"/>
</g>
<!-- S6_1&#45;&gt;S6_6 -->
<g id="edge14" class="edge transition">
<title>S6_1&#45;&gt;S6_6</title>
<path fill="none" stroke="#000000" d="M190.6308,-767.7258C193.5401,-754.3893 199.5816,-736.9672 212,-727 230.6333,-712.0446 241.373,-721.5541 265,-718 278.5195,-715.9663 316.9831,-720.2766 326,-710 336.5525,-697.9732 335.729,-686.7022 326,-674 308.3653,-650.976 286.6749,-673.7507 263,-657 246.0425,-645.0021 222.4449,-596.6322 210,-580 204.1696,-572.2079 199.4532,-572.1717 196.199,-563 192.6322,-552.9474 190.1404,-547.779 196.199,-539 208.2954,-521.4719 223.9058,-534.7022 241,-522 274.072,-497.4252 339.1021,-413.4153 354,-375 357.7122,-365.4277 359.289,-354.3442 359.8314,-344.3857"/>
<polygon fill="#000000" stroke="#000000" points="363.336,-344.2235 360.0662,-334.1458 356.3378,-344.0629 363.336,-344.2235"/>
<text text-anchor="start" x="196" y="-554" font-family="Helvetica,sans-Serif" font-size="10.00" fill="#000000">din == 3&#39;d5 &#160;&#160;</text>
<text text-anchor="start" x="196" y="-542" font-family="Helvetica,sans-Serif" font-size="10.00" fill="#000000">time_out == 1&#39;b0 &#160;&#160;</text>
</g>
<!-- S6_2&#45;&gt;IDLE -->
<g id="edge17" class="edge transition">
<title>S6_2&#45;&gt;IDLE</title>
<path fill="none" stroke="#000000" d="M394.8757,-709.5083C389.2659,-714.4273 384.1402,-720.2955 381,-727 366.4845,-757.9913 359.0846,-777.7155 381,-804 407.9078,-836.2723 433.7754,-808.8545 474,-821 499.8751,-828.8128 504.6436,-835.3183 529.879,-845 551.8406,-853.4257 562.7998,-845.9545 580,-862 610.299,-890.2649 583.1426,-922.7546 616,-948 645.8438,-970.93 753.2124,-977.4292 811.5756,-979.2714"/>
<polygon fill="#000000" stroke="#000000" points="811.7779,-982.7784 821.8733,-979.564 811.9768,-975.7812 811.7779,-982.7784"/>
<text text-anchor="start" x="529" y="-830" font-family="Helvetica,sans-Serif" font-size="10.00" fill="#000000">reconfirm == 1&#39;b1 &#160;&#160;</text>
</g>
<!-- S6_2&#45;&gt;IDLE -->
<g id="edge21" class="edge transition">
<title>S6_2&#45;&gt;IDLE</title>
<path fill="none" stroke="#000000" d="M394.8285,-702.2574C383.6394,-707.8159 371.8283,-715.8738 365,-727 337.5389,-771.7458 323.9548,-806.4042 359.545,-845 375.3735,-862.1653 550.9981,-847.1298 569,-862 581.8028,-872.5756 574.2675,-882.0828 579,-898 584.448,-916.3235 579.7513,-924.3234 592,-939 597.4778,-945.5636 600.857,-945.3965 609,-948 645.8062,-959.7679 753.252,-971.0724 811.4584,-976.5562"/>
<polygon fill="#000000" stroke="#000000" points="811.4445,-980.0699 821.7257,-977.5112 812.0929,-973.1 811.4445,-980.0699"/>
<text text-anchor="start" x="359" y="-836" font-family="Helvetica,sans-Serif" font-size="10.00" fill="#000000">not (reconfirm == 1&#39;b1) &#160;&#160;</text>
<text text-anchor="start" x="359" y="-824" font-family="Helvetica,sans-Serif" font-size="10.00" fill="#000000">not (time_out == 1&#39;b0) &#160;&#160;</text>
</g>
<!-- S6_2&#45;&gt;S6_2 -->
<g id="edge20" class="edge transition">
<title>S6_2&#45;&gt;S6_2</title>
<path fill="none" stroke="#000000" d="M451.0183,-696.8247C462.888,-697.1883 473,-695.5801 473,-692 473,-689.5387 468.2205,-688.0094 461.3762,-687.4121"/>
<polygon fill="#000000" stroke="#000000" points="461.0957,-683.9049 451.0183,-687.1753 460.9356,-690.903 461.0957,-683.9049"/>
<text text-anchor="start" x="473" y="-701" font-family="Helvetica,sans-Serif" font-size="10.00" fill="#000000">not (din == 3&#39;d1) &#160;&#160;</text>
<text text-anchor="start" x="473" y="-689" font-family="Helvetica,sans-Serif" font-size="10.00" fill="#000000">not (din == 3&#39;d5) &#160;&#160;</text>
<text text-anchor="start" x="473" y="-677" font-family="Helvetica,sans-Serif" font-size="10.00" fill="#000000">time_out == 1&#39;b0 &#160;&#160;</text>
</g>
<!-- S6_3 -->
<g id="node7" class="node state regular">
<title>S6_3</title>
<polygon fill="#ffffff" fill-opacity="0.003922" stroke="transparent" stroke-width="2" points="450,-616 394,-616 394,-580 450,-580 450,-616"/>
<text text-anchor="start" x="407.9924" y="-594.2" font-family="Helvetica,sans-Serif" font-size="12.00" fill="#000000">S6_3</text>
<path fill="none" stroke="#000000" stroke-width="2" d="M406.3333,-581C406.3333,-581 437.6667,-581 437.6667,-581 443.3333,-581 449,-586.6667 449,-592.3333 449,-592.3333 449,-603.6667 449,-603.6667 449,-609.3333 443.3333,-615 437.6667,-615 437.6667,-615 406.3333,-615 406.3333,-615 400.6667,-615 395,-609.3333 395,-603.6667 395,-603.6667 395,-592.3333 395,-592.3333 395,-586.6667 400.6667,-581 406.3333,-581"/>
</g>
<!-- S6_2&#45;&gt;S6_3 -->
<g id="edge18" class="edge transition">
<title>S6_2&#45;&gt;S6_3</title>
<path fill="none" stroke="#000000" d="M422.8072,-673.8759C422.6633,-660.3516 422.464,-641.6192 422.2995,-626.1514"/>
<polygon fill="#000000" stroke="#000000" points="425.7985,-626.0307 422.1922,-616.0685 418.7989,-626.1052 425.7985,-626.0307"/>
<text text-anchor="start" x="422" y="-648" font-family="Helvetica,sans-Serif" font-size="10.00" fill="#000000">din == 3&#39;d1 &#160;&#160;</text>
<text text-anchor="start" x="422" y="-636" font-family="Helvetica,sans-Serif" font-size="10.00" fill="#000000">time_out == 1&#39;b0 &#160;&#160;</text>
</g>
<!-- S6_7 -->
<g id="node11" class="node state regular">
<title>S6_7</title>
<polygon fill="#ffffff" fill-opacity="0.003922" stroke="transparent" stroke-width="2" points="199,-616 143,-616 143,-580 199,-580 199,-616"/>
<text text-anchor="start" x="156.9924" y="-594.2" font-family="Helvetica,sans-Serif" font-size="12.00" fill="#000000">S6_7</text>
<path fill="none" stroke="#000000" stroke-width="2" d="M155.3333,-581C155.3333,-581 186.6667,-581 186.6667,-581 192.3333,-581 198,-586.6667 198,-592.3333 198,-592.3333 198,-603.6667 198,-603.6667 198,-609.3333 192.3333,-615 186.6667,-615 186.6667,-615 155.3333,-615 155.3333,-615 149.6667,-615 144,-609.3333 144,-603.6667 144,-603.6667 144,-592.3333 144,-592.3333 144,-586.6667 149.6667,-581 155.3333,-581"/>
</g>
<!-- S6_2&#45;&gt;S6_7 -->
<g id="edge19" class="edge transition">
<title>S6_2&#45;&gt;S6_7</title>
<path fill="none" stroke="#000000" d="M394.9632,-680.6414C389.356,-678.4104 383.4995,-676.109 378,-674 319.0963,-651.4113 250.2538,-626.4124 208.6751,-611.466"/>
<polygon fill="#000000" stroke="#000000" points="209.8145,-608.1563 199.22,-608.0715 207.4492,-614.7446 209.8145,-608.1563"/>
<text text-anchor="start" x="330" y="-648" font-family="Helvetica,sans-Serif" font-size="10.00" fill="#000000">din == 3&#39;d5 &#160;&#160;</text>
<text text-anchor="start" x="330" y="-636" font-family="Helvetica,sans-Serif" font-size="10.00" fill="#000000">time_out == 1&#39;b0 &#160;&#160;</text>
</g>
<!-- S6_3&#45;&gt;IDLE -->
<g id="edge22" class="edge transition">
<title>S6_3&#45;&gt;IDLE</title>
<path fill="none" stroke="#000000" d="M450.304,-606.9094C468.0444,-613.0553 491.0567,-622.0755 510,-633 513.1869,-634.8379 560.3946,-670.6899 562,-674 568.982,-688.3962 572.6874,-698.0929 562,-710 556.1398,-716.529 410.8602,-720.471 405,-727 381.3913,-753.303 396.7443,-782.6071 424.879,-804 441.9378,-816.9711 601.3666,-806.3422 617,-821 627.6612,-830.9959 622,-838.8856 622,-853.5 622,-927 622,-927 622,-927 622,-965.3994 746.2465,-975.9877 811.3017,-978.8999"/>
<polygon fill="#000000" stroke="#000000" points="811.4506,-982.4087 821.5846,-979.3183 811.7353,-975.4145 811.4506,-982.4087"/>
<text text-anchor="start" x="424" y="-783" font-family="Helvetica,sans-Serif" font-size="10.00" fill="#000000">reconfirm == 1&#39;b1 &#160;&#160;</text>
</g>
<!-- S6_3&#45;&gt;IDLE -->
<g id="edge26" class="edge transition">
<title>S6_3&#45;&gt;IDLE</title>
<path fill="none" stroke="#000000" d="M450.0109,-603.0638C473.0252,-608.115 505.8188,-617.4146 531,-633 563.7917,-653.2957 596.5971,-681.1556 571,-710 565.7264,-715.9427 434.2736,-721.0573 429,-727 421.92,-734.9782 422.2566,-742.7354 429,-751 452.8052,-780.1751 478.1291,-751.5489 512,-768 534.2808,-778.8218 532.4376,-792.8281 554.545,-804 583.6803,-818.7234 599.5527,-801.8641 626,-821 639.7408,-830.9421 646,-836.5396 646,-853.5 646,-927 646,-927 646,-927 646,-960.8294 752.4184,-973.4395 811.5318,-977.8346"/>
<polygon fill="#000000" stroke="#000000" points="811.4151,-981.3349 821.6347,-978.5402 811.9029,-974.3519 811.4151,-981.3349"/>
<text text-anchor="start" x="554" y="-789" font-family="Helvetica,sans-Serif" font-size="10.00" fill="#000000">not (reconfirm == 1&#39;b1) &#160;&#160;</text>
<text text-anchor="start" x="554" y="-777" font-family="Helvetica,sans-Serif" font-size="10.00" fill="#000000">not (time_out == 1&#39;b0) &#160;&#160;</text>
</g>
<!-- S6_3&#45;&gt;S6_3 -->
<g id="edge25" class="edge transition">
<title>S6_3&#45;&gt;S6_3</title>
<path fill="none" stroke="#000000" d="M450.0183,-602.8247C461.888,-603.1883 472,-601.5801 472,-598 472,-595.5387 467.2205,-594.0094 460.3762,-593.4121"/>
<polygon fill="#000000" stroke="#000000" points="460.0957,-589.9049 450.0183,-593.1753 459.9356,-596.903 460.0957,-589.9049"/>
<text text-anchor="start" x="472" y="-607" font-family="Helvetica,sans-Serif" font-size="10.00" fill="#000000">not (din == 3&#39;d1) &#160;&#160;</text>
<text text-anchor="start" x="472" y="-595" font-family="Helvetica,sans-Serif" font-size="10.00" fill="#000000">not (din == 3&#39;d5) &#160;&#160;</text>
<text text-anchor="start" x="472" y="-583" font-family="Helvetica,sans-Serif" font-size="10.00" fill="#000000">time_out == 1&#39;b0 &#160;&#160;</text>
</g>
<!-- S6_4 -->
<g id="node8" class="node state regular">
<title>S6_4</title>
<polygon fill="#ffffff" fill-opacity="0.003922" stroke="transparent" stroke-width="2" points="462,-522 406,-522 406,-486 462,-486 462,-522"/>
<text text-anchor="start" x="419.9924" y="-500.2" font-family="Helvetica,sans-Serif" font-size="12.00" fill="#000000">S6_4</text>
<path fill="none" stroke="#000000" stroke-width="2" d="M418.3333,-487C418.3333,-487 449.6667,-487 449.6667,-487 455.3333,-487 461,-492.6667 461,-498.3333 461,-498.3333 461,-509.6667 461,-509.6667 461,-515.3333 455.3333,-521 449.6667,-521 449.6667,-521 418.3333,-521 418.3333,-521 412.6667,-521 407,-515.3333 407,-509.6667 407,-509.6667 407,-498.3333 407,-498.3333 407,-492.6667 412.6667,-487 418.3333,-487"/>
</g>
<!-- S6_3&#45;&gt;S6_4 -->
<g id="edge23" class="edge transition">
<title>S6_3&#45;&gt;S6_4</title>
<path fill="none" stroke="#000000" d="M424.3137,-579.8759C426.0402,-566.3516 428.4316,-547.6192 430.4062,-532.1514"/>
<polygon fill="#000000" stroke="#000000" points="433.8988,-532.4312 431.6934,-522.0685 426.9552,-531.5448 433.8988,-532.4312"/>
<text text-anchor="start" x="429" y="-554" font-family="Helvetica,sans-Serif" font-size="10.00" fill="#000000">din == 3&#39;d1 &#160;&#160;</text>
<text text-anchor="start" x="429" y="-542" font-family="Helvetica,sans-Serif" font-size="10.00" fill="#000000">time_out == 1&#39;b0 &#160;&#160;</text>
</g>
<!-- S6_8 -->
<g id="node12" class="node state regular">
<title>S6_8</title>
<polygon fill="#ffffff" fill-opacity="0.003922" stroke="transparent" stroke-width="2" points="230,-522 174,-522 174,-486 230,-486 230,-522"/>
<text text-anchor="start" x="187.9924" y="-500.2" font-family="Helvetica,sans-Serif" font-size="12.00" fill="#000000">S6_8</text>
<path fill="none" stroke="#000000" stroke-width="2" d="M186.3333,-487C186.3333,-487 217.6667,-487 217.6667,-487 223.3333,-487 229,-492.6667 229,-498.3333 229,-498.3333 229,-509.6667 229,-509.6667 229,-515.3333 223.3333,-521 217.6667,-521 217.6667,-521 186.3333,-521 186.3333,-521 180.6667,-521 175,-515.3333 175,-509.6667 175,-509.6667 175,-498.3333 175,-498.3333 175,-492.6667 180.6667,-487 186.3333,-487"/>
</g>
<!-- S6_3&#45;&gt;S6_8 -->
<g id="edge24" class="edge transition">
<title>S6_3&#45;&gt;S6_8</title>
<path fill="none" stroke="#000000" d="M393.6446,-586.2659C377.3929,-579.5134 356.6248,-570.8384 338.199,-563 304.6847,-548.743 266.662,-532.2447 239.3244,-520.3257"/>
<polygon fill="#000000" stroke="#000000" points="240.6906,-517.1031 230.1253,-516.3119 237.8912,-523.519 240.6906,-517.1031"/>
<text text-anchor="start" x="338" y="-554" font-family="Helvetica,sans-Serif" font-size="10.00" fill="#000000">din == 3&#39;d5 &#160;&#160;</text>
<text text-anchor="start" x="338" y="-542" font-family="Helvetica,sans-Serif" font-size="10.00" fill="#000000">time_out == 1&#39;b0 &#160;&#160;</text>
</g>
<!-- S6_4&#45;&gt;IDLE -->
<g id="edge27" class="edge transition">
<title>S6_4&#45;&gt;IDLE</title>
<path fill="none" stroke="#000000" d="M462.0012,-508.3935C489.7378,-513.1454 529.91,-521.2267 543,-530 596.8982,-566.1242 581.3577,-601.5187 615,-657 619.9317,-665.1331 624.9501,-664.9907 628,-674 635.5593,-696.3296 627.3411,-703.471 625.879,-727 625.2174,-737.6461 619.6648,-742.3304 625.879,-751 639.5827,-770.1185 658.8969,-751.851 676,-768 691.5122,-782.6469 694,-791.1655 694,-812.5 694,-927 694,-927 694,-927 694,-939.2927 701.4882,-941.6271 712,-948 728.6051,-958.0671 777.2333,-967.8904 812.0598,-973.9402"/>
<polygon fill="#000000" stroke="#000000" points="811.4804,-977.3919 821.9257,-975.6181 812.6541,-970.491 811.4804,-977.3919"/>
<text text-anchor="start" x="625" y="-736" font-family="Helvetica,sans-Serif" font-size="10.00" fill="#000000">reconfirm == 1&#39;b1 &#160;&#160;</text>
</g>
<!-- S6_4&#45;&gt;IDLE -->
<g id="edge31" class="edge transition">
<title>S6_4&#45;&gt;IDLE</title>
<path fill="none" stroke="#000000" d="M462.2615,-511.8124C492.8244,-521.9457 539.9856,-542.8821 561,-580 581.9806,-617.0583 600.0957,-685.9802 581,-710 555.6715,-741.8598 464.9986,-703.6127 507.545,-751 519.301,-764.0935 652.5303,-755.5843 665,-768 679.1035,-782.0424 670,-792.5978 670,-812.5 670,-927 670,-927 670,-927 670,-956.3188 758.9893,-970.6105 811.8266,-976.5121"/>
<polygon fill="#000000" stroke="#000000" points="811.5605,-980.0035 821.875,-977.5825 812.302,-973.0428 811.5605,-980.0035"/>
<text text-anchor="start" x="507" y="-742" font-family="Helvetica,sans-Serif" font-size="10.00" fill="#000000">not (reconfirm == 1&#39;b1) &#160;&#160;</text>
<text text-anchor="start" x="507" y="-730" font-family="Helvetica,sans-Serif" font-size="10.00" fill="#000000">not (time_out == 1&#39;b0) &#160;&#160;</text>
</g>
<!-- S6_4&#45;&gt;S6_4 -->
<g id="edge30" class="edge transition">
<title>S6_4&#45;&gt;S6_4</title>
<path fill="none" stroke="#000000" d="M462.0183,-508.8247C473.888,-509.1883 484,-507.5801 484,-504 484,-501.5387 479.2205,-500.0094 472.3762,-499.4121"/>
<polygon fill="#000000" stroke="#000000" points="472.0957,-495.9049 462.0183,-499.1753 471.9356,-502.903 472.0957,-495.9049"/>
<text text-anchor="start" x="484" y="-513" font-family="Helvetica,sans-Serif" font-size="10.00" fill="#000000">not (din == 3&#39;d1) &#160;&#160;</text>
<text text-anchor="start" x="484" y="-501" font-family="Helvetica,sans-Serif" font-size="10.00" fill="#000000">not (din == 3&#39;d5) &#160;&#160;</text>
<text text-anchor="start" x="484" y="-489" font-family="Helvetica,sans-Serif" font-size="10.00" fill="#000000">time_out == 1&#39;b0 &#160;&#160;</text>
</g>
<!-- S6_4&#45;&gt;S6_5 -->
<g id="edge28" class="edge transition">
<title>S6_4&#45;&gt;S6_5</title>
<path fill="none" stroke="#000000" d="M405.9009,-495.8226C347.9163,-478.9478 214.9427,-440.2496 149.214,-421.1211"/>
<polygon fill="#000000" stroke="#000000" points="149.8438,-417.6593 139.2641,-418.2255 147.8878,-424.3804 149.8438,-417.6593"/>
<text text-anchor="start" x="312" y="-460" font-family="Helvetica,sans-Serif" font-size="10.00" fill="#000000">din == 3&#39;d1 &#160;&#160;</text>
<text text-anchor="start" x="312" y="-448" font-family="Helvetica,sans-Serif" font-size="10.00" fill="#000000">time_out == 1&#39;b0 &#160;&#160;</text>
</g>
<!-- S6_9 -->
<g id="node13" class="node state regular">
<title>S6_9</title>
<polygon fill="#ffffff" fill-opacity="0.003922" stroke="transparent" stroke-width="2" points="525,-428 469,-428 469,-392 525,-392 525,-428"/>
<text text-anchor="start" x="482.9924" y="-406.2" font-family="Helvetica,sans-Serif" font-size="12.00" fill="#000000">S6_9</text>
<path fill="none" stroke="#000000" stroke-width="2" d="M481.3333,-393C481.3333,-393 512.6667,-393 512.6667,-393 518.3333,-393 524,-398.6667 524,-404.3333 524,-404.3333 524,-415.6667 524,-415.6667 524,-421.3333 518.3333,-427 512.6667,-427 512.6667,-427 481.3333,-427 481.3333,-427 475.6667,-427 470,-421.3333 470,-415.6667 470,-415.6667 470,-404.3333 470,-404.3333 470,-398.6667 475.6667,-393 481.3333,-393"/>
</g>
<!-- S6_4&#45;&gt;S6_9 -->
<g id="edge29" class="edge transition">
<title>S6_4&#45;&gt;S6_9</title>
<path fill="none" stroke="#000000" d="M446.147,-485.8759C455.5598,-471.8314 468.7368,-452.1706 479.3187,-436.3816"/>
<polygon fill="#000000" stroke="#000000" points="482.2302,-438.324 484.8903,-428.0685 476.4154,-434.4268 482.2302,-438.324"/>
<text text-anchor="start" x="473" y="-460" font-family="Helvetica,sans-Serif" font-size="10.00" fill="#000000">din == 3&#39;d5 &#160;&#160;</text>
<text text-anchor="start" x="473" y="-448" font-family="Helvetica,sans-Serif" font-size="10.00" fill="#000000">time_out == 1&#39;b0 &#160;&#160;</text>
</g>
<!-- S6_5&#45;&gt;IDLE -->
<g id="edge32" class="edge transition">
<title>S6_5&#45;&gt;IDLE</title>
<path fill="none" stroke="#000000" d="M82.8168,-418.9068C66.0427,-426.1592 48,-438.3051 48,-457 48,-624.5 48,-624.5 48,-624.5 48,-644.4617 61.8544,-646.7775 79,-657 92.0576,-664.7852 97.2043,-662.5072 112,-666 129.6449,-670.1654 140.5059,-659.9794 152,-674 162.1438,-686.3735 161.8466,-697.3887 152,-710 132.8285,-734.5545 109.0964,-708.5435 84,-727 66.8064,-739.6446 67.0176,-748.2206 59,-768 30.4418,-838.4528 3.1572,-892.1172 63,-939 92.7454,-962.3035 657.3812,-975.9225 811.4487,-979.2152"/>
<polygon fill="#000000" stroke="#000000" points="811.7473,-982.7222 821.8191,-979.4344 811.8953,-975.7237 811.7473,-982.7222"/>
<text text-anchor="start" x="159" y="-689" font-family="Helvetica,sans-Serif" font-size="10.00" fill="#000000">reconfirm == 1&#39;b1 &#160;&#160;</text>
</g>
<!-- S6_5&#45;&gt;IDLE -->
<g id="edge36" class="edge transition">
<title>S6_5&#45;&gt;IDLE</title>
<path fill="none" stroke="#000000" d="M82.9938,-413.3731C57.5609,-418.1841 24,-429.704 24,-457 24,-624.5 24,-624.5 24,-624.5 24,-804.7733 -10.5085,-898.8674 35,-939 64.4406,-964.9628 653.8981,-976.7033 811.5225,-979.3861"/>
<polygon fill="#000000" stroke="#000000" points="811.6344,-982.8884 821.6918,-979.5568 811.7519,-975.8894 811.6344,-982.8884"/>
<text text-anchor="start" x="24" y="-695" font-family="Helvetica,sans-Serif" font-size="10.00" fill="#000000">not (reconfirm == 1&#39;b1) &#160;&#160;</text>
<text text-anchor="start" x="24" y="-683" font-family="Helvetica,sans-Serif" font-size="10.00" fill="#000000">not (time_out == 1&#39;b0) &#160;&#160;</text>
</g>
<!-- S6_5&#45;&gt;S6_5 -->
<g id="edge35" class="edge transition">
<title>S6_5&#45;&gt;S6_5</title>
<path fill="none" stroke="#000000" d="M139.0183,-414.8247C150.888,-415.1883 161,-413.5801 161,-410 161,-407.5387 156.2205,-406.0094 149.3762,-405.4121"/>
<polygon fill="#000000" stroke="#000000" points="149.0957,-401.9049 139.0183,-405.1753 148.9356,-408.903 149.0957,-401.9049"/>
<text text-anchor="start" x="161" y="-419" font-family="Helvetica,sans-Serif" font-size="10.00" fill="#000000">not (din == 3&#39;d1) &#160;&#160;</text>
<text text-anchor="start" x="161" y="-407" font-family="Helvetica,sans-Serif" font-size="10.00" fill="#000000">not (din == 3&#39;d5) &#160;&#160;</text>
<text text-anchor="start" x="161" y="-395" font-family="Helvetica,sans-Serif" font-size="10.00" fill="#000000">time_out == 1&#39;b0 &#160;&#160;</text>
</g>
<!-- S6_5&#45;&gt;S6_6 -->
<g id="edge33" class="edge transition">
<title>S6_5&#45;&gt;S6_6</title>
<path fill="none" stroke="#000000" d="M116.1219,-391.8563C120.893,-378.4059 129.3888,-360.7762 143.199,-351 171.0797,-331.2633 266.4419,-321.9779 320.6059,-318.2041"/>
<polygon fill="#000000" stroke="#000000" points="321.112,-321.6783 330.8572,-317.5214 320.6467,-314.6938 321.112,-321.6783"/>
<text text-anchor="start" x="143" y="-366" font-family="Helvetica,sans-Serif" font-size="10.00" fill="#000000">din == 3&#39;d1 &#160;&#160;</text>
<text text-anchor="start" x="143" y="-354" font-family="Helvetica,sans-Serif" font-size="10.00" fill="#000000">time_out == 1&#39;b0 &#160;&#160;</text>
</g>
<!-- S6_10 -->
<g id="node14" class="node state regular">
<title>S6_10</title>
<polygon fill="#ffffff" fill-opacity="0.003922" stroke="transparent" stroke-width="2" points="560,-334 504,-334 504,-298 560,-298 560,-334"/>
<text text-anchor="start" x="514.657" y="-312.2" font-family="Helvetica,sans-Serif" font-size="12.00" fill="#000000">S6_10</text>
<path fill="none" stroke="#000000" stroke-width="2" d="M516.3333,-299C516.3333,-299 547.6667,-299 547.6667,-299 553.3333,-299 559,-304.6667 559,-310.3333 559,-310.3333 559,-321.6667 559,-321.6667 559,-327.3333 553.3333,-333 547.6667,-333 547.6667,-333 516.3333,-333 516.3333,-333 510.6667,-333 505,-327.3333 505,-321.6667 505,-321.6667 505,-310.3333 505,-310.3333 505,-304.6667 510.6667,-299 516.3333,-299"/>
</g>
<!-- S6_5&#45;&gt;S6_10 -->
<g id="edge34" class="edge transition">
<title>S6_5&#45;&gt;S6_10</title>
<path fill="none" stroke="#000000" d="M139.2767,-403.6864C212.9006,-387.2478 410.5893,-343.1083 494.0205,-324.48"/>
<polygon fill="#000000" stroke="#000000" points="494.8494,-327.8812 503.8464,-322.2861 493.324,-321.0494 494.8494,-327.8812"/>
<text text-anchor="start" x="373" y="-366" font-family="Helvetica,sans-Serif" font-size="10.00" fill="#000000">din == 3&#39;d5 &#160;&#160;</text>
<text text-anchor="start" x="373" y="-354" font-family="Helvetica,sans-Serif" font-size="10.00" fill="#000000">time_out == 1&#39;b0 &#160;&#160;</text>
</g>
<!-- S6_6&#45;&gt;IDLE -->
<g id="edge37" class="edge transition">
<title>S6_6&#45;&gt;IDLE</title>
<path fill="none" stroke="#000000" d="M387.168,-324.6997C423.3981,-336.6279 487.4352,-360.2507 536,-392 577.0492,-418.836 581.4523,-428.2896 591,-445 618.3332,-492.8388 607.6058,-512.2266 629,-563 639.3447,-587.5503 642.0042,-593.9806 657,-616 670.5221,-635.8555 675.9468,-639.3296 692.221,-657 699.4128,-664.8088 703.2391,-665.0831 709,-674 709.1727,-674.2673 742,-759.1818 742,-759.5 742,-927 742,-927 742,-927 742,-943.0666 781.0065,-958.964 812.1356,-969.0928"/>
<polygon fill="#000000" stroke="#000000" points="811.3166,-972.5043 821.9062,-972.1716 813.4204,-965.8279 811.3166,-972.5043"/>
<text text-anchor="middle" x="693.3895" y="-642" font-family="Helvetica,sans-Serif" font-size="10.00" fill="#000000"> </text>
</g>
<!-- S6_7&#45;&gt;IDLE -->
<g id="edge38" class="edge transition">
<title>S6_7&#45;&gt;IDLE</title>
<path fill="none" stroke="#000000" d="M142.9125,-608.1391C131.8452,-613.6767 120.2932,-621.7508 114,-633 108.7922,-642.309 106.7978,-649.1319 114,-657 128.4607,-672.7977 291.5393,-658.2023 306,-674 316.8033,-685.8021 316.9862,-698.368 306,-710 295.3015,-721.3273 180.0256,-711.2142 166,-718 75.7682,-761.6557 43.5558,-875.3604 121,-939 133.077,-948.9243 139.5496,-945.6271 155,-948 283.1873,-967.6872 685.3494,-976.8624 811.6503,-979.3085"/>
<polygon fill="#000000" stroke="#000000" points="811.9122,-982.814 821.9771,-979.5053 812.0457,-975.8153 811.9122,-982.814"/>
<text text-anchor="middle" x="106.3895" y="-783" font-family="Helvetica,sans-Serif" font-size="10.00" fill="#000000"> </text>
</g>
<!-- S6_8&#45;&gt;IDLE -->
<g id="edge39" class="edge transition">
<title>S6_8&#45;&gt;IDLE</title>
<path fill="none" stroke="#000000" d="M173.9799,-514.2092C147.1871,-525.6553 108.3738,-547.0484 91,-580 74.813,-610.7006 77.5697,-634.5059 104,-657 124.8696,-674.7616 137.7532,-663.063 165,-666 177.9553,-667.3965 273.106,-664.4771 282,-674 292.921,-685.6932 292.9404,-698.3249 282,-710 272.6353,-719.9935 172.5595,-716.0742 159,-718 140.6243,-720.6099 134.3385,-717.7965 118.221,-727 96.5875,-739.3533 90.8375,-745.5688 80,-768 46.8422,-836.629 32.4652,-892.6867 93,-939 121.7744,-961.0144 661.2007,-975.4933 811.4467,-979.111"/>
<polygon fill="#000000" stroke="#000000" points="811.4988,-982.6132 821.5794,-979.3527 811.6658,-975.6152 811.4988,-982.6132"/>
<text text-anchor="middle" x="119.3895" y="-736" font-family="Helvetica,sans-Serif" font-size="10.00" fill="#000000"> </text>
</g>
<!-- S6_9&#45;&gt;IDLE -->
<g id="edge40" class="edge transition">
<title>S6_9&#45;&gt;IDLE</title>
<path fill="none" stroke="#000000" d="M525.3281,-413.2684C551.0533,-417.9998 585,-429.4608 585,-457 585,-530.5 585,-530.5 585,-530.5 585,-561.0653 621.5324,-631.9178 639,-657 664.8724,-694.151 691.9775,-686.9047 713,-727 719.7863,-739.9432 718,-744.8856 718,-759.5 718,-927 718,-927 718,-927 718,-939.2927 725.6369,-941.388 736,-948 758.9456,-962.64 788.6517,-970.6963 811.9869,-975.0629"/>
<polygon fill="#000000" stroke="#000000" points="811.4362,-978.5195 821.8854,-976.7684 812.6249,-971.6212 811.4362,-978.5195"/>
<text text-anchor="middle" x="702.3895" y="-689" font-family="Helvetica,sans-Serif" font-size="10.00" fill="#000000"> </text>
</g>
<!-- S6_10&#45;&gt;IDLE -->
<g id="edge41" class="edge transition">
<title>S6_10&#45;&gt;IDLE</title>
<path fill="none" stroke="#000000" d="M560.1341,-323.2365C590.0192,-331.7703 633,-346.8508 633,-363 633,-530.5 633,-530.5 633,-530.5 633,-547.0119 642.502,-548.8428 651,-563 677.0391,-606.38 766,-708.9049 766,-759.5 766,-927 766,-927 766,-927 766,-950.4323 789.6689,-963.9218 811.8787,-971.4216"/>
<polygon fill="#000000" stroke="#000000" points="810.9755,-974.8052 821.5614,-974.3704 813.0149,-968.1088 810.9755,-974.8052"/>
<text text-anchor="middle" x="718.3895" y="-642" font-family="Helvetica,sans-Serif" font-size="10.00" fill="#000000"> </text>
</g>
<!-- S9_0&#45;&gt;IDLE -->
<g id="edge42" class="edge transition">
<title>S9_0&#45;&gt;IDLE</title>
<path fill="none" stroke="#000000" d="M941.1187,-889.4696C952.8463,-894.9709 965.281,-903.2019 972,-915 977.2786,-924.269 978.2263,-930.3391 972,-939 961.9668,-952.9564 919.9301,-964.9459 887.9803,-972.292"/>
<polygon fill="#000000" stroke="#000000" points="887.0152,-968.9211 878.0147,-974.5105 888.5364,-975.7538 887.0152,-968.9211"/>
<text text-anchor="start" x="976" y="-924" font-family="Helvetica,sans-Serif" font-size="10.00" fill="#000000">reconfirm == 1&#39;b1 &#160;&#160;</text>
</g>
<!-- S9_0&#45;&gt;IDLE -->
<g id="edge46" class="edge transition">
<title>S9_0&#45;&gt;IDLE</title>
<path fill="none" stroke="#000000" d="M941.1327,-881.1311C994.6246,-884.2813 1102.6256,-896.013 1067,-939 1044.7634,-965.8315 944.6881,-975.2308 888.5323,-978.4255"/>
<polygon fill="#000000" stroke="#000000" points="888.0558,-974.9458 878.2546,-978.9689 888.4255,-981.936 888.0558,-974.9458"/>
<text text-anchor="start" x="1074" y="-930" font-family="Helvetica,sans-Serif" font-size="10.00" fill="#000000">not (reconfirm == 1&#39;b1) &#160;&#160;</text>
<text text-anchor="start" x="1074" y="-918" font-family="Helvetica,sans-Serif" font-size="10.00" fill="#000000">not (time_out == 1&#39;b0) &#160;&#160;</text>
</g>
<!-- S9_0&#45;&gt;S9_0 -->
<g id="edge45" class="edge transition">
<title>S9_0&#45;&gt;S9_0</title>
<path fill="none" stroke="#000000" d="M941.0183,-884.8247C952.888,-885.1883 963,-883.5801 963,-880 963,-877.5387 958.2205,-876.0094 951.3762,-875.4121"/>
<polygon fill="#000000" stroke="#000000" points="951.0957,-871.9049 941.0183,-875.1753 950.9356,-878.903 951.0957,-871.9049"/>
<text text-anchor="start" x="963" y="-889" font-family="Helvetica,sans-Serif" font-size="10.00" fill="#000000">not (din == 3&#39;d1) &#160;&#160;</text>
<text text-anchor="start" x="963" y="-877" font-family="Helvetica,sans-Serif" font-size="10.00" fill="#000000">not (din == 3&#39;d5) &#160;&#160;</text>
<text text-anchor="start" x="963" y="-865" font-family="Helvetica,sans-Serif" font-size="10.00" fill="#000000">time_out == 1&#39;b0 &#160;&#160;</text>
</g>
<!-- S9_1 -->
<g id="node16" class="node state regular">
<title>S9_1</title>
<polygon fill="#ffffff" fill-opacity="0.003922" stroke="transparent" stroke-width="2" points="989,-804 933,-804 933,-768 989,-768 989,-804"/>
<text text-anchor="start" x="946.9924" y="-782.2" font-family="Helvetica,sans-Serif" font-size="12.00" fill="#000000">S9_1</text>
<path fill="none" stroke="#000000" stroke-width="2" d="M945.3333,-769C945.3333,-769 976.6667,-769 976.6667,-769 982.3333,-769 988,-774.6667 988,-780.3333 988,-780.3333 988,-791.6667 988,-791.6667 988,-797.3333 982.3333,-803 976.6667,-803 976.6667,-803 945.3333,-803 945.3333,-803 939.6667,-803 934,-797.3333 934,-791.6667 934,-791.6667 934,-780.3333 934,-780.3333 934,-774.6667 939.6667,-769 945.3333,-769"/>
</g>
<!-- S9_0&#45;&gt;S9_1 -->
<g id="edge43" class="edge transition">
<title>S9_0&#45;&gt;S9_1</title>
<path fill="none" stroke="#000000" d="M941.1102,-875.1041C963.1169,-870.6315 991.1162,-863.3042 998,-854 1006.7232,-842.2095 1003.8003,-834.471 998,-821 996.5936,-817.7337 994.7159,-814.6298 992.5496,-811.7179"/>
<polygon fill="#000000" stroke="#000000" points="995.0528,-809.2636 985.8325,-804.0447 989.7857,-813.8744 995.0528,-809.2636"/>
<text text-anchor="start" x="1003" y="-836" font-family="Helvetica,sans-Serif" font-size="10.00" fill="#000000">din == 3&#39;d1 &#160;&#160;</text>
<text text-anchor="start" x="1003" y="-824" font-family="Helvetica,sans-Serif" font-size="10.00" fill="#000000">time_out == 1&#39;b0 &#160;&#160;</text>
</g>
<!-- S9_5 -->
<g id="node20" class="node state regular">
<title>S9_5</title>
<polygon fill="#ffffff" fill-opacity="0.003922" stroke="transparent" stroke-width="2" points="1058,-428 1002,-428 1002,-392 1058,-392 1058,-428"/>
<text text-anchor="start" x="1015.9924" y="-406.2" font-family="Helvetica,sans-Serif" font-size="12.00" fill="#000000">S9_5</text>
<path fill="none" stroke="#000000" stroke-width="2" d="M1014.3333,-393C1014.3333,-393 1045.6667,-393 1045.6667,-393 1051.3333,-393 1057,-398.6667 1057,-404.3333 1057,-404.3333 1057,-415.6667 1057,-415.6667 1057,-421.3333 1051.3333,-427 1045.6667,-427 1045.6667,-427 1014.3333,-427 1014.3333,-427 1008.6667,-427 1003,-421.3333 1003,-415.6667 1003,-415.6667 1003,-404.3333 1003,-404.3333 1003,-398.6667 1008.6667,-393 1014.3333,-393"/>
</g>
<!-- S9_0&#45;&gt;S9_5 -->
<g id="edge44" class="edge transition">
<title>S9_0&#45;&gt;S9_5</title>
<path fill="none" stroke="#000000" d="M941.2684,-870.7876C953.2834,-865.3101 966.0927,-857.0258 973,-845 978.3126,-835.7505 979.2369,-829.6532 973,-821 959.0297,-801.6172 941.2562,-818.1444 922,-804 906.0935,-792.3161 907.9265,-783.7255 896,-768 879.1805,-745.8229 868.9928,-744.1175 857,-719 840.4635,-684.3661 844.5035,-671.0908 849.199,-633 859.7883,-547.0979 836.8107,-504.1474 900,-445 913.2993,-432.5514 958.5996,-422.2864 992.0004,-416.1611"/>
<polygon fill="#000000" stroke="#000000" points="992.7024,-419.5912 1001.9355,-414.3952 991.4773,-412.6992 992.7024,-419.5912"/>
<text text-anchor="start" x="849" y="-648" font-family="Helvetica,sans-Serif" font-size="10.00" fill="#000000">din == 3&#39;d5 &#160;&#160;</text>
<text text-anchor="start" x="849" y="-636" font-family="Helvetica,sans-Serif" font-size="10.00" fill="#000000">time_out == 1&#39;b0 &#160;&#160;</text>
</g>
<!-- S9_1&#45;&gt;IDLE -->
<g id="edge47" class="edge transition">
<title>S9_1&#45;&gt;IDLE</title>
<path fill="none" stroke="#000000" d="M989.2069,-789.9218C1023.2625,-795.2571 1077.6455,-805.8985 1091,-821 1113.8955,-846.8908 1078.1153,-872.9037 1101.879,-898 1128.7041,-926.3294 1163.2274,-884.8594 1188,-915 1194.7729,-923.2405 1195.0738,-931.0163 1188,-939 1168.3814,-961.1421 972.7589,-973.7261 888.3938,-978.1607"/>
<polygon fill="#000000" stroke="#000000" points="888.0089,-974.6758 878.202,-978.6851 888.3686,-981.6666 888.0089,-974.6758"/>
<text text-anchor="start" x="1101" y="-877" font-family="Helvetica,sans-Serif" font-size="10.00" fill="#000000">reconfirm == 1&#39;b1 &#160;&#160;</text>
</g>
<!-- S9_1&#45;&gt;IDLE -->
<g id="edge51" class="edge transition">
<title>S9_1&#45;&gt;IDLE</title>
<path fill="none" stroke="#000000" d="M989.3502,-790.0405C1014.6121,-794.0978 1052.3689,-801.2938 1084,-812 1132.9592,-828.5713 1158.5967,-820.1999 1189,-862 1197.8016,-874.1009 1204.7684,-925.1442 1196,-939 1179.7173,-964.73 975.0022,-975.349 888.3434,-978.7101"/>
<polygon fill="#000000" stroke="#000000" points="887.9999,-975.2205 878.1383,-979.0934 888.2627,-982.2155 887.9999,-975.2205"/>
<text text-anchor="start" x="1198" y="-883" font-family="Helvetica,sans-Serif" font-size="10.00" fill="#000000">not (reconfirm == 1&#39;b1) &#160;&#160;</text>
<text text-anchor="start" x="1198" y="-871" font-family="Helvetica,sans-Serif" font-size="10.00" fill="#000000">not (time_out == 1&#39;b0) &#160;&#160;</text>
</g>
<!-- S9_1&#45;&gt;S9_1 -->
<g id="edge50" class="edge transition">
<title>S9_1&#45;&gt;S9_1</title>
<path fill="none" stroke="#000000" d="M989.0183,-790.8247C1000.888,-791.1883 1011,-789.5801 1011,-786 1011,-783.5387 1006.2205,-782.0094 999.3762,-781.4121"/>
<polygon fill="#000000" stroke="#000000" points="999.0957,-777.9049 989.0183,-781.1753 998.9356,-784.903 999.0957,-777.9049"/>
<text text-anchor="start" x="1011" y="-795" font-family="Helvetica,sans-Serif" font-size="10.00" fill="#000000">not (din == 3&#39;d1) &#160;&#160;</text>
<text text-anchor="start" x="1011" y="-783" font-family="Helvetica,sans-Serif" font-size="10.00" fill="#000000">not (din == 3&#39;d5) &#160;&#160;</text>
<text text-anchor="start" x="1011" y="-771" font-family="Helvetica,sans-Serif" font-size="10.00" fill="#000000">time_out == 1&#39;b0 &#160;&#160;</text>
</g>
<!-- S9_2 -->
<g id="node17" class="node state regular">
<title>S9_2</title>
<polygon fill="#ffffff" fill-opacity="0.003922" stroke="transparent" stroke-width="2" points="940,-710 884,-710 884,-674 940,-674 940,-710"/>
<text text-anchor="start" x="897.9924" y="-688.2" font-family="Helvetica,sans-Serif" font-size="12.00" fill="#000000">S9_2</text>
<path fill="none" stroke="#000000" stroke-width="2" d="M896.3333,-675C896.3333,-675 927.6667,-675 927.6667,-675 933.3333,-675 939,-680.6667 939,-686.3333 939,-686.3333 939,-697.6667 939,-697.6667 939,-703.3333 933.3333,-709 927.6667,-709 927.6667,-709 896.3333,-709 896.3333,-709 890.6667,-709 885,-703.3333 885,-697.6667 885,-697.6667 885,-686.3333 885,-686.3333 885,-680.6667 890.6667,-675 896.3333,-675"/>
</g>
<!-- S9_1&#45;&gt;S9_2 -->
<g id="edge48" class="edge transition">
<title>S9_1&#45;&gt;S9_2</title>
<path fill="none" stroke="#000000" d="M951.5523,-767.8759C944.3668,-754.0915 934.3611,-734.8968 926.2114,-719.2627"/>
<polygon fill="#000000" stroke="#000000" points="929.1448,-717.3182 921.4187,-710.0685 922.9375,-720.5539 929.1448,-717.3182"/>
<text text-anchor="start" x="942" y="-742" font-family="Helvetica,sans-Serif" font-size="10.00" fill="#000000">din == 3&#39;d1 &#160;&#160;</text>
<text text-anchor="start" x="942" y="-730" font-family="Helvetica,sans-Serif" font-size="10.00" fill="#000000">time_out == 1&#39;b0 &#160;&#160;</text>
</g>
<!-- S9_6 -->
<g id="node21" class="node state regular">
<title>S9_6</title>
<polygon fill="#ffffff" fill-opacity="0.003922" stroke="transparent" stroke-width="2" points="1162,-334 1106,-334 1106,-298 1162,-298 1162,-334"/>
<text text-anchor="start" x="1119.9924" y="-312.2" font-family="Helvetica,sans-Serif" font-size="12.00" fill="#000000">S9_6</text>
<path fill="none" stroke="#000000" stroke-width="2" d="M1118.3333,-299C1118.3333,-299 1149.6667,-299 1149.6667,-299 1155.3333,-299 1161,-304.6667 1161,-310.3333 1161,-310.3333 1161,-321.6667 1161,-321.6667 1161,-327.3333 1155.3333,-333 1149.6667,-333 1149.6667,-333 1118.3333,-333 1118.3333,-333 1112.6667,-333 1107,-327.3333 1107,-321.6667 1107,-321.6667 1107,-310.3333 1107,-310.3333 1107,-304.6667 1112.6667,-299 1118.3333,-299"/>
</g>
<!-- S9_1&#45;&gt;S9_6 -->
<g id="edge49" class="edge transition">
<title>S9_1&#45;&gt;S9_6</title>
<path fill="none" stroke="#000000" d="M932.5845,-770.5373C911.7953,-757.4628 885.1813,-736.6156 873,-710 866.3414,-695.4513 863.3508,-686.763 873,-674 889.715,-651.8911 916.285,-679.1089 933,-657 939.4328,-648.4914 934.5044,-643.5601 933,-633 917.477,-524.0339 825.3956,-489.7434 876,-392 894.0803,-357.0776 911.9263,-355.1153 949,-342 975.2396,-332.7174 1049.4493,-324.195 1095.5134,-319.5859"/>
<polygon fill="#000000" stroke="#000000" points="1096.12,-323.0432 1105.7296,-318.5815 1095.4351,-316.0768 1096.12,-323.0432"/>
<text text-anchor="start" x="910" y="-554" font-family="Helvetica,sans-Serif" font-size="10.00" fill="#000000">din == 3&#39;d5 &#160;&#160;</text>
<text text-anchor="start" x="910" y="-542" font-family="Helvetica,sans-Serif" font-size="10.00" fill="#000000">time_out == 1&#39;b0 &#160;&#160;</text>
</g>
<!-- S9_2&#45;&gt;IDLE -->
<g id="edge52" class="edge transition">
<title>S9_2&#45;&gt;IDLE</title>
<path fill="none" stroke="#000000" d="M907.8362,-710.0898C900.719,-741.1277 885.8363,-806.5449 874,-862 867.4238,-892.8105 860.2733,-928.2373 855.5035,-952.1687"/>
<polygon fill="#000000" stroke="#000000" points="852.069,-951.4949 853.5519,-961.9855 858.9346,-952.8599 852.069,-951.4949"/>
<text text-anchor="start" x="882" y="-830" font-family="Helvetica,sans-Serif" font-size="10.00" fill="#000000">reconfirm == 1&#39;b1 &#160;&#160;</text>
</g>
<!-- S9_2&#45;&gt;IDLE -->
<g id="edge56" class="edge transition">
<title>S9_2&#45;&gt;IDLE</title>
<path fill="none" stroke="#000000" d="M940.3284,-698.3564C964.6618,-704.2944 1000.3965,-714.1652 1030,-727 1063.0796,-741.3419 1072.4925,-744.6915 1100,-768 1115.8899,-781.4643 1112.7619,-792.3113 1130,-804 1178.5823,-836.9423 1199.5399,-827.4254 1255.545,-845 1280.5469,-852.8457 1296.3689,-840.9686 1312,-862 1321.5443,-874.8416 1320.933,-884.7259 1312,-898 1279.0537,-946.9572 1246.3179,-933.9668 1189,-948 1132.8571,-961.7456 964.6779,-973.1635 888.3858,-977.7893"/>
<polygon fill="#000000" stroke="#000000" points="888.0245,-974.3045 878.2518,-978.3964 888.4432,-981.292 888.0245,-974.3045"/>
<text text-anchor="start" x="1255" y="-836" font-family="Helvetica,sans-Serif" font-size="10.00" fill="#000000">not (reconfirm == 1&#39;b1) &#160;&#160;</text>
<text text-anchor="start" x="1255" y="-824" font-family="Helvetica,sans-Serif" font-size="10.00" fill="#000000">not (time_out == 1&#39;b0) &#160;&#160;</text>
</g>
<!-- S9_2&#45;&gt;S9_2 -->
<g id="edge55" class="edge transition">
<title>S9_2&#45;&gt;S9_2</title>
<path fill="none" stroke="#000000" d="M940.0183,-696.8247C951.888,-697.1883 962,-695.5801 962,-692 962,-689.5387 957.2205,-688.0094 950.3762,-687.4121"/>
<polygon fill="#000000" stroke="#000000" points="950.0957,-683.9049 940.0183,-687.1753 949.9356,-690.903 950.0957,-683.9049"/>
<text text-anchor="start" x="962" y="-701" font-family="Helvetica,sans-Serif" font-size="10.00" fill="#000000">not (din == 3&#39;d1) &#160;&#160;</text>
<text text-anchor="start" x="962" y="-689" font-family="Helvetica,sans-Serif" font-size="10.00" fill="#000000">not (din == 3&#39;d5) &#160;&#160;</text>
<text text-anchor="start" x="962" y="-677" font-family="Helvetica,sans-Serif" font-size="10.00" fill="#000000">time_out == 1&#39;b0 &#160;&#160;</text>
</g>
<!-- S9_3 -->
<g id="node18" class="node state regular">
<title>S9_3</title>
<polygon fill="#ffffff" fill-opacity="0.003922" stroke="transparent" stroke-width="2" points="1085,-616 1029,-616 1029,-580 1085,-580 1085,-616"/>
<text text-anchor="start" x="1042.9924" y="-594.2" font-family="Helvetica,sans-Serif" font-size="12.00" fill="#000000">S9_3</text>
<path fill="none" stroke="#000000" stroke-width="2" d="M1041.3333,-581C1041.3333,-581 1072.6667,-581 1072.6667,-581 1078.3333,-581 1084,-586.6667 1084,-592.3333 1084,-592.3333 1084,-603.6667 1084,-603.6667 1084,-609.3333 1078.3333,-615 1072.6667,-615 1072.6667,-615 1041.3333,-615 1041.3333,-615 1035.6667,-615 1030,-609.3333 1030,-603.6667 1030,-603.6667 1030,-592.3333 1030,-592.3333 1030,-586.6667 1035.6667,-581 1041.3333,-581"/>
</g>
<!-- S9_2&#45;&gt;S9_3 -->
<g id="edge53" class="edge transition">
<title>S9_2&#45;&gt;S9_3</title>
<path fill="none" stroke="#000000" d="M940.2467,-680.333C949.3258,-676.2047 959.2846,-671.2664 968,-666 989.1675,-653.2092 1011.2703,-636.3432 1028.1541,-622.6085"/>
<polygon fill="#000000" stroke="#000000" points="1030.5027,-625.2084 1035.9963,-616.1491 1026.0523,-619.8053 1030.5027,-625.2084"/>
<text text-anchor="start" x="1013" y="-648" font-family="Helvetica,sans-Serif" font-size="10.00" fill="#000000">din == 3&#39;d1 &#160;&#160;</text>
<text text-anchor="start" x="1013" y="-636" font-family="Helvetica,sans-Serif" font-size="10.00" fill="#000000">time_out == 1&#39;b0 &#160;&#160;</text>
</g>
<!-- S9_7 -->
<g id="node22" class="node state regular">
<title>S9_7</title>
<polygon fill="#ffffff" fill-opacity="0.003922" stroke="transparent" stroke-width="2" points="1366,-240 1310,-240 1310,-204 1366,-204 1366,-240"/>
<text text-anchor="start" x="1323.9924" y="-218.2" font-family="Helvetica,sans-Serif" font-size="12.00" fill="#000000">S9_7</text>
<path fill="none" stroke="#000000" stroke-width="2" d="M1322.3333,-205C1322.3333,-205 1353.6667,-205 1353.6667,-205 1359.3333,-205 1365,-210.6667 1365,-216.3333 1365,-216.3333 1365,-227.6667 1365,-227.6667 1365,-233.3333 1359.3333,-239 1353.6667,-239 1353.6667,-239 1322.3333,-239 1322.3333,-239 1316.6667,-239 1311,-233.3333 1311,-227.6667 1311,-227.6667 1311,-216.3333 1311,-216.3333 1311,-210.6667 1316.6667,-205 1322.3333,-205"/>
</g>
<!-- S9_2&#45;&gt;S9_7 -->
<g id="edge54" class="edge transition">
<title>S9_2&#45;&gt;S9_7</title>
<path fill="none" stroke="#000000" d="M929.6204,-673.8338C950.8866,-650.4613 985.3651,-607.5388 998,-563 1011.1372,-516.6906 962.1291,-513.6728 944.199,-469 924.5915,-420.1481 908.0643,-396.8073 934,-351 940.4002,-339.6961 835.8236,-347.3499 1103,-257 1169.8424,-234.3962 1252.2844,-226.3729 1299.6326,-223.5371"/>
<polygon fill="#000000" stroke="#000000" points="1299.9594,-227.0245 1309.7513,-222.9787 1299.5736,-220.0352 1299.9594,-227.0245"/>
<text text-anchor="start" x="944" y="-460" font-family="Helvetica,sans-Serif" font-size="10.00" fill="#000000">din == 3&#39;d5 &#160;&#160;</text>
<text text-anchor="start" x="944" y="-448" font-family="Helvetica,sans-Serif" font-size="10.00" fill="#000000">time_out == 1&#39;b0 &#160;&#160;</text>
</g>
<!-- S9_3&#45;&gt;IDLE -->
<g id="edge57" class="edge transition">
<title>S9_3&#45;&gt;IDLE</title>
<path fill="none" stroke="#000000" d="M1085.3926,-603.2181C1102.8037,-607.2153 1125.1094,-613.8095 1143,-624 1161.8601,-634.7428 1160.6012,-645.4849 1179,-657 1196.42,-667.9025 1210.4447,-657.006 1222,-674 1230.9966,-687.231 1228.7157,-695.4776 1222,-710 1217.1033,-720.5887 1206.8967,-716.4113 1202,-727 1197.5228,-736.6816 1196.4981,-741.8618 1202,-751 1212.8366,-768.9986 1275.1838,-761.0215 1295,-768 1322.8655,-777.8132 1324.2728,-791.1588 1350.879,-804 1372.0632,-814.2243 1382.9486,-805.9184 1401,-821 1413.6714,-831.5867 1419,-836.9881 1419,-853.5 1419,-927 1419,-927 1419,-927 1419,-939.2927 1412.0144,-942.5417 1401,-948 1355.4165,-970.5894 1006.2711,-977.7218 888.5859,-979.4968"/>
<polygon fill="#000000" stroke="#000000" points="888.2049,-976.0019 878.2571,-979.6477 888.3072,-983.0011 888.2049,-976.0019"/>
<text text-anchor="start" x="1350" y="-783" font-family="Helvetica,sans-Serif" font-size="10.00" fill="#000000">reconfirm == 1&#39;b1 &#160;&#160;</text>
</g>
<!-- S9_3&#45;&gt;IDLE -->
<g id="edge61" class="edge transition">
<title>S9_3&#45;&gt;IDLE</title>
<path fill="none" stroke="#000000" d="M1085.2919,-612.8412C1096.0522,-618.7768 1108.2923,-625.8869 1119,-633 1133.5137,-642.6415 1134.7054,-648.6526 1150,-657 1169.8657,-667.8422 1184.9386,-655.5177 1198,-674 1207.234,-687.0665 1200.3303,-694.1706 1198,-710 1197.5099,-713.3291 1181.0351,-764.6709 1180.545,-768 1178.2147,-783.8294 1169.73,-792.2087 1180.545,-804 1184.2474,-808.0367 1372.4053,-818.0181 1377,-821 1390.8507,-829.9889 1395,-836.9881 1395,-853.5 1395,-927 1395,-927 1395,-927 1395,-939.2927 1388.0072,-942.5272 1377,-948 1333.6166,-969.5704 1002.4237,-977.3383 888.4155,-979.3893"/>
<polygon fill="#000000" stroke="#000000" points="888.0146,-975.8957 878.0774,-979.5702 888.1371,-982.8946 888.0146,-975.8957"/>
<text text-anchor="start" x="1180" y="-789" font-family="Helvetica,sans-Serif" font-size="10.00" fill="#000000">not (reconfirm == 1&#39;b1) &#160;&#160;</text>
<text text-anchor="start" x="1180" y="-777" font-family="Helvetica,sans-Serif" font-size="10.00" fill="#000000">not (time_out == 1&#39;b0) &#160;&#160;</text>
</g>
<!-- S9_3&#45;&gt;S9_3 -->
<g id="edge60" class="edge transition">
<title>S9_3&#45;&gt;S9_3</title>
<path fill="none" stroke="#000000" d="M1085.0183,-602.8247C1096.888,-603.1883 1107,-601.5801 1107,-598 1107,-595.5387 1102.2205,-594.0094 1095.3762,-593.4121"/>
<polygon fill="#000000" stroke="#000000" points="1095.0957,-589.9049 1085.0183,-593.1753 1094.9356,-596.903 1095.0957,-589.9049"/>
<text text-anchor="start" x="1107" y="-607" font-family="Helvetica,sans-Serif" font-size="10.00" fill="#000000">not (din == 3&#39;d1) &#160;&#160;</text>
<text text-anchor="start" x="1107" y="-595" font-family="Helvetica,sans-Serif" font-size="10.00" fill="#000000">not (din == 3&#39;d5) &#160;&#160;</text>
<text text-anchor="start" x="1107" y="-583" font-family="Helvetica,sans-Serif" font-size="10.00" fill="#000000">time_out == 1&#39;b0 &#160;&#160;</text>
</g>
<!-- S9_4 -->
<g id="node19" class="node state regular">
<title>S9_4</title>
<polygon fill="#ffffff" fill-opacity="0.003922" stroke="transparent" stroke-width="2" points="1311,-522 1255,-522 1255,-486 1311,-486 1311,-522"/>
<text text-anchor="start" x="1268.9924" y="-500.2" font-family="Helvetica,sans-Serif" font-size="12.00" fill="#000000">S9_4</text>
<path fill="none" stroke="#000000" stroke-width="2" d="M1267.3333,-487C1267.3333,-487 1298.6667,-487 1298.6667,-487 1304.3333,-487 1310,-492.6667 1310,-498.3333 1310,-498.3333 1310,-509.6667 1310,-509.6667 1310,-515.3333 1304.3333,-521 1298.6667,-521 1298.6667,-521 1267.3333,-521 1267.3333,-521 1261.6667,-521 1256,-515.3333 1256,-509.6667 1256,-509.6667 1256,-498.3333 1256,-498.3333 1256,-492.6667 1261.6667,-487 1267.3333,-487"/>
</g>
<!-- S9_3&#45;&gt;S9_4 -->
<g id="edge58" class="edge transition">
<title>S9_3&#45;&gt;S9_4</title>
<path fill="none" stroke="#000000" d="M1085.1001,-585.1567C1112.1318,-572.9183 1154.2302,-554.1629 1191.199,-539 1208.8761,-531.7497 1228.6598,-524.1432 1245.322,-517.8804"/>
<polygon fill="#000000" stroke="#000000" points="1246.592,-521.1423 1254.7323,-514.361 1244.1399,-514.5858 1246.592,-521.1423"/>
<text text-anchor="start" x="1191" y="-554" font-family="Helvetica,sans-Serif" font-size="10.00" fill="#000000">din == 3&#39;d1 &#160;&#160;</text>
<text text-anchor="start" x="1191" y="-542" font-family="Helvetica,sans-Serif" font-size="10.00" fill="#000000">time_out == 1&#39;b0 &#160;&#160;</text>
</g>
<!-- S9_8 -->
<g id="node23" class="node state regular">
<title>S9_8</title>
<polygon fill="#ffffff" fill-opacity="0.003922" stroke="transparent" stroke-width="2" points="1104,-146 1048,-146 1048,-110 1104,-110 1104,-146"/>
<text text-anchor="start" x="1061.9924" y="-124.2" font-family="Helvetica,sans-Serif" font-size="12.00" fill="#000000">S9_8</text>
<path fill="none" stroke="#000000" stroke-width="2" d="M1060.3333,-111C1060.3333,-111 1091.6667,-111 1091.6667,-111 1097.3333,-111 1103,-116.6667 1103,-122.3333 1103,-122.3333 1103,-133.6667 1103,-133.6667 1103,-139.3333 1097.3333,-145 1091.6667,-145 1091.6667,-145 1060.3333,-145 1060.3333,-145 1054.6667,-145 1049,-139.3333 1049,-133.6667 1049,-133.6667 1049,-122.3333 1049,-122.3333 1049,-116.6667 1054.6667,-111 1060.3333,-111"/>
</g>
<!-- S9_3&#45;&gt;S9_8 -->
<g id="edge59" class="edge transition">
<title>S9_3&#45;&gt;S9_8</title>
<path fill="none" stroke="#000000" d="M1074.5966,-579.5267C1101.1748,-550.2034 1150.426,-489.954 1169,-428 1178.9889,-394.6819 1180.238,-374.9358 1155,-351 1134.8896,-331.9273 1116.2851,-351.7522 1095,-334 1062.4866,-306.8831 1053,-290.8373 1053,-248.5 1053,-248.5 1053,-248.5 1053,-175 1053,-168.323 1054.8959,-161.6058 1057.5991,-155.4218"/>
<polygon fill="#000000" stroke="#000000" points="1060.8702,-156.7158 1062.355,-146.2255 1054.6525,-153.5002 1060.8702,-156.7158"/>
<text text-anchor="start" x="1172" y="-366" font-family="Helvetica,sans-Serif" font-size="10.00" fill="#000000">din == 3&#39;d5 &#160;&#160;</text>
<text text-anchor="start" x="1172" y="-354" font-family="Helvetica,sans-Serif" font-size="10.00" fill="#000000">time_out == 1&#39;b0 &#160;&#160;</text>
</g>
<!-- S9_4&#45;&gt;IDLE -->
<g id="edge62" class="edge transition">
<title>S9_4&#45;&gt;IDLE</title>
<path fill="none" stroke="#000000" d="M1286.9938,-522.2119C1293.6002,-550.6487 1307.5184,-603.6304 1322,-616 1339.1688,-630.6649 1349.5851,-622.2802 1372,-625 1385.926,-626.6898 1488.4,-622.7711 1498,-633 1534.8255,-672.2377 1439.5294,-707.2631 1470.879,-751 1484.5827,-770.1185 1503.8969,-751.851 1521,-768 1536.5122,-782.6469 1539,-791.1655 1539,-812.5 1539,-927 1539,-927 1539,-927 1539,-939.2927 1532.0426,-942.5988 1521,-948 1492.4745,-961.9526 1026.6911,-975.3291 888.4098,-979.0083"/>
<polygon fill="#000000" stroke="#000000" points="888.1867,-975.5128 878.2827,-979.2759 888.3717,-982.5104 888.1867,-975.5128"/>
<text text-anchor="start" x="1470" y="-736" font-family="Helvetica,sans-Serif" font-size="10.00" fill="#000000">reconfirm == 1&#39;b1 &#160;&#160;</text>
</g>
<!-- S9_4&#45;&gt;IDLE -->
<g id="edge66" class="edge transition">
<title>S9_4&#45;&gt;IDLE</title>
<path fill="none" stroke="#000000" d="M1279.5436,-522.2486C1276.0091,-546.9784 1273.9874,-590.9172 1298,-616 1308.5128,-626.9814 1315.9944,-622.5619 1331,-625 1346.7078,-627.5521 1463.0661,-621.4373 1474,-633 1481.3288,-640.7503 1477.9381,-647.0869 1474,-657 1462.0442,-687.0957 1452.1111,-693.9234 1424,-710 1387.5411,-730.8506 1303.6225,-699.479 1349.545,-751 1371.4925,-775.6232 1470.7533,-748.0222 1497,-768 1513.9763,-780.9216 1515,-791.1655 1515,-812.5 1515,-927 1515,-927 1515,-927 1515,-939.2927 1508.0378,-942.589 1497,-948 1442.4872,-974.7233 1019.6262,-979.1321 888.5855,-979.8576"/>
<polygon fill="#000000" stroke="#000000" points="888.2223,-976.3593 878.2404,-979.9105 888.2582,-983.3592 888.2223,-976.3593"/>
<text text-anchor="start" x="1349" y="-742" font-family="Helvetica,sans-Serif" font-size="10.00" fill="#000000">not (reconfirm == 1&#39;b1) &#160;&#160;</text>
<text text-anchor="start" x="1349" y="-730" font-family="Helvetica,sans-Serif" font-size="10.00" fill="#000000">not (time_out == 1&#39;b0) &#160;&#160;</text>
</g>
<!-- S9_4&#45;&gt;S9_4 -->
<g id="edge65" class="edge transition">
<title>S9_4&#45;&gt;S9_4</title>
<path fill="none" stroke="#000000" d="M1311.0183,-508.8247C1322.888,-509.1883 1333,-507.5801 1333,-504 1333,-501.5387 1328.2205,-500.0094 1321.3762,-499.4121"/>
<polygon fill="#000000" stroke="#000000" points="1321.0957,-495.9049 1311.0183,-499.1753 1320.9356,-502.903 1321.0957,-495.9049"/>
<text text-anchor="start" x="1333" y="-513" font-family="Helvetica,sans-Serif" font-size="10.00" fill="#000000">not (din == 3&#39;d1) &#160;&#160;</text>
<text text-anchor="start" x="1333" y="-501" font-family="Helvetica,sans-Serif" font-size="10.00" fill="#000000">not (din == 3&#39;d5) &#160;&#160;</text>
<text text-anchor="start" x="1333" y="-489" font-family="Helvetica,sans-Serif" font-size="10.00" fill="#000000">time_out == 1&#39;b0 &#160;&#160;</text>
</g>
<!-- S9_4&#45;&gt;S9_5 -->
<g id="edge63" class="edge transition">
<title>S9_4&#45;&gt;S9_5</title>
<path fill="none" stroke="#000000" d="M1261.1959,-485.7038C1241.3136,-470.0147 1210.4748,-448.0862 1180,-436 1143.5793,-421.5557 1099.0405,-415.1216 1067.9982,-412.2642"/>
<polygon fill="#000000" stroke="#000000" points="1068.2773,-408.7754 1058.0194,-411.4259 1067.6913,-415.7508 1068.2773,-408.7754"/>
<text text-anchor="start" x="1238" y="-460" font-family="Helvetica,sans-Serif" font-size="10.00" fill="#000000">din == 3&#39;d1 &#160;&#160;</text>
<text text-anchor="start" x="1238" y="-448" font-family="Helvetica,sans-Serif" font-size="10.00" fill="#000000">time_out == 1&#39;b0 &#160;&#160;</text>
</g>
<!-- S9_9 -->
<g id="node24" class="node state regular">
<title>S9_9</title>
<polygon fill="#ffffff" fill-opacity="0.003922" stroke="transparent" stroke-width="2" points="1044,-52 988,-52 988,-16 1044,-16 1044,-52"/>
<text text-anchor="start" x="1001.9924" y="-30.2" font-family="Helvetica,sans-Serif" font-size="12.00" fill="#000000">S9_9</text>
<path fill="none" stroke="#000000" stroke-width="2" d="M1000.3333,-17C1000.3333,-17 1031.6667,-17 1031.6667,-17 1037.3333,-17 1043,-22.6667 1043,-28.3333 1043,-28.3333 1043,-39.6667 1043,-39.6667 1043,-45.3333 1037.3333,-51 1031.6667,-51 1031.6667,-51 1000.3333,-51 1000.3333,-51 994.6667,-51 989,-45.3333 989,-39.6667 989,-39.6667 989,-28.3333 989,-28.3333 989,-22.6667 994.6667,-17 1000.3333,-17"/>
</g>
<!-- S9_4&#45;&gt;S9_9 -->
<g id="edge64" class="edge transition">
<title>S9_4&#45;&gt;S9_9</title>
<path fill="none" stroke="#000000" d="M1311.1217,-496.6386C1340.6992,-488.0478 1383,-472.9699 1383,-457 1383,-457 1383,-457 1383,-363 1383,-309.5095 1369.1703,-288.5841 1326,-257 1295.661,-234.8035 1249,-259.5917 1249,-222 1249,-222 1249,-222 1249,-101.5 1249,-86.8856 1254.3356,-79.3322 1244,-69 1230.7807,-55.785 1115.5767,-43.2298 1054.1725,-37.4007"/>
<polygon fill="#000000" stroke="#000000" points="1054.3683,-33.9038 1044.0859,-36.4577 1053.7167,-40.8734 1054.3683,-33.9038"/>
<text text-anchor="start" x="1354" y="-272" font-family="Helvetica,sans-Serif" font-size="10.00" fill="#000000">din == 3&#39;d5 &#160;&#160;</text>
<text text-anchor="start" x="1354" y="-260" font-family="Helvetica,sans-Serif" font-size="10.00" fill="#000000">time_out == 1&#39;b0 &#160;&#160;</text>
</g>
<!-- S9_5&#45;&gt;IDLE -->
<g id="edge67" class="edge transition">
<title>S9_5&#45;&gt;IDLE</title>
<path fill="none" stroke="#000000" d="M1058.0151,-420.8101C1099.0615,-438.4058 1173.8289,-477.5751 1203,-539 1225.498,-586.3736 1176.0176,-612.0293 1203,-657 1206.8873,-663.4788 1211.6257,-660.9436 1218,-665 1223.6244,-668.5792 1227.0186,-668.0372 1230,-674 1237.1554,-688.3108 1231.8446,-694.1067 1230,-710 1229.1051,-717.7101 1226.8949,-719.2899 1226,-727 1224.7703,-737.5955 1220.3922,-741.9264 1226,-751 1230.7023,-758.6085 1235.3392,-757.7661 1244,-760 1264.8902,-765.3883 1422.2155,-753.2935 1438,-768 1452.5614,-781.567 1443,-792.5978 1443,-812.5 1443,-927 1443,-927 1443,-927 1443,-927.0645 1410.873,-946.8658 1407,-948 1357.5973,-962.4678 1006.1502,-974.9737 888.3647,-978.7994"/>
<polygon fill="#000000" stroke="#000000" points="888.2353,-975.3017 878.3532,-979.1219 888.4608,-982.298 888.2353,-975.3017"/>
<text text-anchor="start" x="1233" y="-689" font-family="Helvetica,sans-Serif" font-size="10.00" fill="#000000">reconfirm == 1&#39;b1 &#160;&#160;</text>
</g>
<!-- S9_5&#45;&gt;IDLE -->
<g id="edge71" class="edge transition">
<title>S9_5&#45;&gt;IDLE</title>
<path fill="none" stroke="#000000" d="M1031.7103,-428.2853C1032.384,-436.9761 1033,-447.5155 1033,-457 1033,-530.5 1033,-530.5 1033,-530.5 1033,-569.0804 993.6096,-586.1076 1018,-616 1041.8052,-645.1751 1077.1948,-603.8249 1101,-633 1107.7434,-641.2646 1105.1469,-647.1725 1101,-657 1096.7899,-666.9772 1087.7551,-664.0228 1083.545,-674 1077.3246,-688.7413 1077.7322,-695.0932 1083.545,-710 1093.8556,-736.4414 1144.6129,-791.3134 1170,-804 1205.9595,-821.9698 1219.9543,-809.4871 1260,-813 1271.7661,-814.0322 1357.3316,-812.9772 1366,-821 1376.7256,-830.9268 1371,-838.8856 1371,-853.5 1371,-927 1371,-927 1371,-927 1371,-951.27 1008.4432,-971.93 888.218,-978.1138"/>
<polygon fill="#000000" stroke="#000000" points="887.8201,-974.6294 878.0112,-978.6338 888.1764,-981.6203 887.8201,-974.6294"/>
<text text-anchor="start" x="1083" y="-695" font-family="Helvetica,sans-Serif" font-size="10.00" fill="#000000">not (reconfirm == 1&#39;b1) &#160;&#160;</text>
<text text-anchor="start" x="1083" y="-683" font-family="Helvetica,sans-Serif" font-size="10.00" fill="#000000">not (time_out == 1&#39;b0) &#160;&#160;</text>
</g>
<!-- S9_5&#45;&gt;S9_5 -->
<g id="edge70" class="edge transition">
<title>S9_5&#45;&gt;S9_5</title>
<path fill="none" stroke="#000000" d="M1058.0183,-414.8247C1069.888,-415.1883 1080,-413.5801 1080,-410 1080,-407.5387 1075.2205,-406.0094 1068.3762,-405.4121"/>
<polygon fill="#000000" stroke="#000000" points="1068.0957,-401.9049 1058.0183,-405.1753 1067.9356,-408.903 1068.0957,-401.9049"/>
<text text-anchor="start" x="1080" y="-419" font-family="Helvetica,sans-Serif" font-size="10.00" fill="#000000">not (din == 3&#39;d1) &#160;&#160;</text>
<text text-anchor="start" x="1080" y="-407" font-family="Helvetica,sans-Serif" font-size="10.00" fill="#000000">not (din == 3&#39;d5) &#160;&#160;</text>
<text text-anchor="start" x="1080" y="-395" font-family="Helvetica,sans-Serif" font-size="10.00" fill="#000000">time_out == 1&#39;b0 &#160;&#160;</text>
</g>
<!-- S9_5&#45;&gt;S9_6 -->
<g id="edge68" class="edge transition">
<title>S9_5&#45;&gt;S9_6</title>
<path fill="none" stroke="#000000" d="M1001.6906,-406.6393C981.9472,-402.6552 956.9418,-393.9603 944.199,-375 938.2491,-366.147 937.3746,-359.1979 944.199,-351 963.1121,-328.2804 1046.1225,-320.2525 1095.8863,-317.457"/>
<polygon fill="#000000" stroke="#000000" points="1096.1596,-320.9477 1105.9657,-316.9365 1095.7985,-313.957 1096.1596,-320.9477"/>
<text text-anchor="start" x="944" y="-366" font-family="Helvetica,sans-Serif" font-size="10.00" fill="#000000">din == 3&#39;d1 &#160;&#160;</text>
<text text-anchor="start" x="944" y="-354" font-family="Helvetica,sans-Serif" font-size="10.00" fill="#000000">time_out == 1&#39;b0 &#160;&#160;</text>
</g>
<!-- S9_10 -->
<g id="node25" class="node state regular">
<title>S9_10</title>
<polygon fill="#ffffff" fill-opacity="0.003922" stroke="transparent" stroke-width="2" points="1352,-334 1296,-334 1296,-298 1352,-298 1352,-334"/>
<text text-anchor="start" x="1306.657" y="-312.2" font-family="Helvetica,sans-Serif" font-size="12.00" fill="#000000">S9_10</text>
<path fill="none" stroke="#000000" stroke-width="2" d="M1308.3333,-299C1308.3333,-299 1339.6667,-299 1339.6667,-299 1345.3333,-299 1351,-304.6667 1351,-310.3333 1351,-310.3333 1351,-321.6667 1351,-321.6667 1351,-327.3333 1345.3333,-333 1339.6667,-333 1339.6667,-333 1308.3333,-333 1308.3333,-333 1302.6667,-333 1297,-327.3333 1297,-321.6667 1297,-321.6667 1297,-310.3333 1297,-310.3333 1297,-304.6667 1302.6667,-299 1308.3333,-299"/>
</g>
<!-- S9_5&#45;&gt;S9_10 -->
<g id="edge69" class="edge transition">
<title>S9_5&#45;&gt;S9_10</title>
<path fill="none" stroke="#000000" d="M1037.5285,-391.7247C1044.2162,-378.0145 1055.3938,-360.1048 1071.199,-351 1110.1949,-328.536 1229.0009,-343.4548 1273,-334 1277.3518,-333.0648 1281.8408,-331.8588 1286.2669,-330.5142"/>
<polygon fill="#000000" stroke="#000000" points="1287.3633,-333.8382 1295.7783,-327.4009 1285.1856,-327.1855 1287.3633,-333.8382"/>
<text text-anchor="start" x="1071" y="-366" font-family="Helvetica,sans-Serif" font-size="10.00" fill="#000000">din == 3&#39;d5 &#160;&#160;</text>
<text text-anchor="start" x="1071" y="-354" font-family="Helvetica,sans-Serif" font-size="10.00" fill="#000000">time_out == 1&#39;b0 &#160;&#160;</text>
</g>
<!-- S9_6&#45;&gt;IDLE -->
<g id="edge72" class="edge transition">
<title>S9_6&#45;&gt;IDLE</title>
<path fill="none" stroke="#000000" d="M1162.2706,-319.8566C1195.6747,-325.0603 1248.2194,-335.5009 1260,-351 1286.8838,-386.3694 1235.9585,-401.7039 1226,-445 1217.4323,-482.2496 1222.8652,-492.9065 1226,-531 1230.6555,-587.5724 1207.8135,-615.8175 1246.879,-657 1271.0345,-682.4645 1302.0143,-646.6402 1324,-674 1334.0223,-686.4721 1333.967,-697.4837 1324,-710 1320.2621,-714.694 1214.3448,-694.6577 1250,-751 1254.9966,-758.8957 1259.9318,-757.747 1269,-760 1288.3213,-764.8004 1431.6359,-756.6609 1448,-768 1465.6762,-780.2483 1467,-790.9949 1467,-812.5 1467,-927 1467,-927 1467,-927 1467,-952.7509 1438.2628,-943.0101 1413,-948 1312.2655,-967.8972 998.6115,-976.6721 888.6018,-979.1927"/>
<polygon fill="#000000" stroke="#000000" points="888.2237,-975.7002 878.3048,-979.4239 888.3809,-982.6985 888.2237,-975.7002"/>
<text text-anchor="start" x="1246" y="-642" font-family="Helvetica,sans-Serif" font-size="10.00" fill="#000000">reconfirm == 1&#39;b1 &#160;&#160;</text>
</g>
<!-- S9_6&#45;&gt;IDLE -->
<g id="edge76" class="edge transition">
<title>S9_6&#45;&gt;IDLE</title>
<path fill="none" stroke="#000000" d="M1162.151,-318.7344C1198.45,-322.9726 1258.2138,-332.625 1269,-351 1276.4281,-363.6543 1272.97,-369.6303 1270,-384 1265.6885,-404.86 1262.1024,-409.8213 1251,-428 1245.8984,-436.3532 1240.3053,-435.7871 1237,-445 1233.398,-455.0401 1236.3002,-458.3563 1237,-469 1241.4275,-536.3356 1226.3854,-569.1994 1275,-616 1279.9149,-620.7315 1329.8978,-627.5489 1334,-633 1340.4139,-641.5229 1334.1006,-646.3338 1334,-657 1333.7778,-680.5587 1334.6005,-686.4947 1333,-710 1332.4832,-717.5901 1331.4452,-719.4054 1331,-727 1330.3758,-737.6484 1324.7167,-742.3804 1331,-751 1348.4219,-774.8997 1437.6781,-752.7188 1463,-768 1483.0064,-780.0734 1491,-789.1328 1491,-812.5 1491,-927 1491,-927 1491,-927 1491,-959.0555 1453.8297,-944.2018 1422,-948 1222.0275,-971.8625 980.5478,-977.9962 888.3238,-979.5178"/>
<polygon fill="#000000" stroke="#000000" points="888.0272,-976.0219 878.0831,-979.6777 888.1366,-983.0211 888.0272,-976.0219"/>
<text text-anchor="start" x="1336" y="-648" font-family="Helvetica,sans-Serif" font-size="10.00" fill="#000000">not (reconfirm == 1&#39;b1) &#160;&#160;</text>
<text text-anchor="start" x="1336" y="-636" font-family="Helvetica,sans-Serif" font-size="10.00" fill="#000000">not (time_out == 1&#39;b0) &#160;&#160;</text>
</g>
<!-- S9_6&#45;&gt;S9_6 -->
<g id="edge75" class="edge transition">
<title>S9_6&#45;&gt;S9_6</title>
<path fill="none" stroke="#000000" d="M1162.0183,-320.8247C1173.888,-321.1883 1184,-319.5801 1184,-316 1184,-313.5387 1179.2205,-312.0094 1172.3762,-311.4121"/>
<polygon fill="#000000" stroke="#000000" points="1172.0957,-307.9049 1162.0183,-311.1753 1171.9356,-314.903 1172.0957,-307.9049"/>
<text text-anchor="start" x="1184" y="-325" font-family="Helvetica,sans-Serif" font-size="10.00" fill="#000000">not (din == 3&#39;d1) &#160;&#160;</text>
<text text-anchor="start" x="1184" y="-313" font-family="Helvetica,sans-Serif" font-size="10.00" fill="#000000">not (din == 3&#39;d5) &#160;&#160;</text>
<text text-anchor="start" x="1184" y="-301" font-family="Helvetica,sans-Serif" font-size="10.00" fill="#000000">time_out == 1&#39;b0 &#160;&#160;</text>
</g>
<!-- S9_6&#45;&gt;S9_7 -->
<g id="edge73" class="edge transition">
<title>S9_6&#45;&gt;S9_7</title>
<path fill="none" stroke="#000000" d="M1162.1988,-300.9202C1173.6391,-294.7752 1186.9684,-287.5811 1199,-281 1218.2694,-270.46 1222.2229,-266.1299 1242.199,-257 1260.9513,-248.4295 1282.4639,-240.4147 1300.3466,-234.2231"/>
<polygon fill="#000000" stroke="#000000" points="1301.5307,-237.5174 1309.8674,-230.979 1299.2729,-230.8915 1301.5307,-237.5174"/>
<text text-anchor="start" x="1242" y="-272" font-family="Helvetica,sans-Serif" font-size="10.00" fill="#000000">din == 3&#39;d1 &#160;&#160;</text>
<text text-anchor="start" x="1242" y="-260" font-family="Helvetica,sans-Serif" font-size="10.00" fill="#000000">time_out == 1&#39;b0 &#160;&#160;</text>
</g>
<!-- S9_11 -->
<g id="node26" class="node state regular">
<title>S9_11</title>
<polygon fill="#ffffff" fill-opacity="0.003922" stroke="transparent" stroke-width="2" points="1132,-240 1076,-240 1076,-204 1132,-204 1132,-240"/>
<text text-anchor="start" x="1086.657" y="-218.2" font-family="Helvetica,sans-Serif" font-size="12.00" fill="#000000">S9_11</text>
<path fill="none" stroke="#000000" stroke-width="2" d="M1088.3333,-205C1088.3333,-205 1119.6667,-205 1119.6667,-205 1125.3333,-205 1131,-210.6667 1131,-216.3333 1131,-216.3333 1131,-227.6667 1131,-227.6667 1131,-233.3333 1125.3333,-239 1119.6667,-239 1119.6667,-239 1088.3333,-239 1088.3333,-239 1082.6667,-239 1077,-233.3333 1077,-227.6667 1077,-227.6667 1077,-216.3333 1077,-216.3333 1077,-210.6667 1082.6667,-205 1088.3333,-205"/>
</g>
<!-- S9_6&#45;&gt;S9_11 -->
<g id="edge74" class="edge transition">
<title>S9_6&#45;&gt;S9_11</title>
<path fill="none" stroke="#000000" d="M1122.9537,-297.9565C1120.0794,-292.6457 1117.2247,-286.7219 1115.199,-281 1111.7494,-271.2563 1109.2921,-260.2108 1107.5758,-250.3331"/>
<polygon fill="#000000" stroke="#000000" points="1110.993,-249.5306 1105.9924,-240.1901 1104.0767,-250.6103 1110.993,-249.5306"/>
<text text-anchor="start" x="1115" y="-272" font-family="Helvetica,sans-Serif" font-size="10.00" fill="#000000">din == 3&#39;d5 &#160;&#160;</text>
<text text-anchor="start" x="1115" y="-260" font-family="Helvetica,sans-Serif" font-size="10.00" fill="#000000">time_out == 1&#39;b0 &#160;&#160;</text>
</g>
<!-- S9_7&#45;&gt;IDLE -->
<g id="edge77" class="edge transition">
<title>S9_7&#45;&gt;IDLE</title>
<path fill="none" stroke="#000000" d="M1366.1347,-227.1953C1401.6031,-234.5636 1458,-249.3666 1458,-269 1458,-477.5 1458,-477.5 1458,-477.5 1458,-546.0983 1344.1089,-564.9038 1389.879,-616 1401.3741,-628.8328 1527.9912,-626.6331 1544,-633 1566.2598,-641.8531 1587,-641.5443 1587,-665.5 1587,-927 1587,-927 1587,-927 1587,-952.7509 1558.2874,-943.1359 1533,-948 1408.1217,-972.0206 1013.8591,-978.2486 888.5988,-979.641"/>
<polygon fill="#000000" stroke="#000000" points="888.3072,-976.1438 878.3452,-979.7507 888.3822,-983.1434 888.3072,-976.1438"/>
<text text-anchor="start" x="1389" y="-595" font-family="Helvetica,sans-Serif" font-size="10.00" fill="#000000">reconfirm == 1&#39;b1 &#160;&#160;</text>
</g>
<!-- S9_7&#45;&gt;IDLE -->
<g id="edge81" class="edge transition">
<title>S9_7&#45;&gt;IDLE</title>
<path fill="none" stroke="#000000" d="M1366.1065,-225.3681C1408.0131,-231.1851 1482,-244.8717 1482,-269 1482,-530.5 1482,-530.5 1482,-530.5 1482,-572.0023 1488.925,-587.9846 1519.545,-616 1537.0034,-631.9733 1549.2068,-621.7046 1570,-633 1590.4326,-644.0995 1611,-642.2472 1611,-665.5 1611,-927 1611,-927 1611,-927 1611,-959.0555 1573.8477,-944.3558 1542,-948 1413.8506,-962.6635 1014.6316,-975.22 888.5599,-978.9058"/>
<polygon fill="#000000" stroke="#000000" points="888.1403,-975.4164 878.2462,-979.2053 888.3436,-982.4135 888.1403,-975.4164"/>
<text text-anchor="start" x="1519" y="-601" font-family="Helvetica,sans-Serif" font-size="10.00" fill="#000000">not (reconfirm == 1&#39;b1) &#160;&#160;</text>
<text text-anchor="start" x="1519" y="-589" font-family="Helvetica,sans-Serif" font-size="10.00" fill="#000000">not (time_out == 1&#39;b0) &#160;&#160;</text>
</g>
<!-- S9_7&#45;&gt;S9_7 -->
<g id="edge80" class="edge transition">
<title>S9_7&#45;&gt;S9_7</title>
<path fill="none" stroke="#000000" d="M1366.0183,-226.8247C1377.888,-227.1883 1388,-225.5801 1388,-222 1388,-219.5387 1383.2205,-218.0094 1376.3762,-217.4121"/>
<polygon fill="#000000" stroke="#000000" points="1376.0957,-213.9049 1366.0183,-217.1753 1375.9356,-220.903 1376.0957,-213.9049"/>
<text text-anchor="start" x="1388" y="-231" font-family="Helvetica,sans-Serif" font-size="10.00" fill="#000000">not (din == 3&#39;d1) &#160;&#160;</text>
<text text-anchor="start" x="1388" y="-219" font-family="Helvetica,sans-Serif" font-size="10.00" fill="#000000">not (din == 3&#39;d5) &#160;&#160;</text>
<text text-anchor="start" x="1388" y="-207" font-family="Helvetica,sans-Serif" font-size="10.00" fill="#000000">time_out == 1&#39;b0 &#160;&#160;</text>
</g>
<!-- S9_7&#45;&gt;S9_8 -->
<g id="edge78" class="edge transition">
<title>S9_7&#45;&gt;S9_8</title>
<path fill="none" stroke="#000000" d="M1309.9614,-211.9404C1262.711,-194.9879 1167.1831,-160.7145 1113.97,-141.6228"/>
<polygon fill="#000000" stroke="#000000" points="1114.8275,-138.2121 1104.233,-138.1294 1112.4636,-144.8009 1114.8275,-138.2121"/>
<text text-anchor="start" x="1239" y="-178" font-family="Helvetica,sans-Serif" font-size="10.00" fill="#000000">din == 3&#39;d1 &#160;&#160;</text>
<text text-anchor="start" x="1239" y="-166" font-family="Helvetica,sans-Serif" font-size="10.00" fill="#000000">time_out == 1&#39;b0 &#160;&#160;</text>
</g>
<!-- S9_12 -->
<g id="node27" class="node state regular">
<title>S9_12</title>
<polygon fill="#ffffff" fill-opacity="0.003922" stroke="transparent" stroke-width="2" points="1554,-146 1498,-146 1498,-110 1554,-110 1554,-146"/>
<text text-anchor="start" x="1508.657" y="-124.2" font-family="Helvetica,sans-Serif" font-size="12.00" fill="#000000">S9_12</text>
<path fill="none" stroke="#000000" stroke-width="2" d="M1510.3333,-111C1510.3333,-111 1541.6667,-111 1541.6667,-111 1547.3333,-111 1553,-116.6667 1553,-122.3333 1553,-122.3333 1553,-133.6667 1553,-133.6667 1553,-139.3333 1547.3333,-145 1541.6667,-145 1541.6667,-145 1510.3333,-145 1510.3333,-145 1504.6667,-145 1499,-139.3333 1499,-133.6667 1499,-133.6667 1499,-122.3333 1499,-122.3333 1499,-116.6667 1504.6667,-111 1510.3333,-111"/>
</g>
<!-- S9_7&#45;&gt;S9_12 -->
<g id="edge79" class="edge transition">
<title>S9_7&#45;&gt;S9_12</title>
<path fill="none" stroke="#000000" d="M1366.1455,-207.9273C1398.774,-191.613 1452.6764,-164.6618 1488.7529,-146.6235"/>
<polygon fill="#000000" stroke="#000000" points="1490.5905,-149.6179 1497.9695,-142.0152 1487.46,-143.3569 1490.5905,-149.6179"/>
<text text-anchor="start" x="1455" y="-178" font-family="Helvetica,sans-Serif" font-size="10.00" fill="#000000">din == 3&#39;d5 &#160;&#160;</text>
<text text-anchor="start" x="1455" y="-166" font-family="Helvetica,sans-Serif" font-size="10.00" fill="#000000">time_out == 1&#39;b0 &#160;&#160;</text>
</g>
<!-- S9_8&#45;&gt;IDLE -->
<g id="edge82" class="edge transition">
<title>S9_8&#45;&gt;IDLE</title>
<path fill="none" stroke="#000000" d="M1104.301,-128.2201C1197.6192,-129.2156 1491.404,-134.5978 1522,-163 1532.7108,-172.9428 1527,-180.8856 1527,-195.5 1527,-530.5 1527,-530.5 1527,-530.5 1527,-546.7763 1530.8564,-553.2363 1543.879,-563 1575.0945,-586.4037 1603.5808,-551.2917 1630,-580 1643.477,-594.6448 1635,-604.5978 1635,-624.5 1635,-927 1635,-927 1635,-927 1635,-955.6727 1602.4303,-944.2794 1574,-948 1439.6135,-965.5868 1018.6472,-976.2363 888.6374,-979.1692"/>
<polygon fill="#000000" stroke="#000000" points="888.2947,-975.6759 878.3753,-979.3983 888.451,-982.6742 888.2947,-975.6759"/>
<text text-anchor="start" x="1543" y="-548" font-family="Helvetica,sans-Serif" font-size="10.00" fill="#000000">reconfirm == 1&#39;b1 &#160;&#160;</text>
</g>
<!-- S9_8&#45;&gt;IDLE -->
<g id="edge86" class="edge transition">
<title>S9_8&#45;&gt;IDLE</title>
<path fill="none" stroke="#000000" d="M1047.7342,-128.6065C960.9225,-130.8405 704,-140.3767 704,-175 704,-477.5 704,-477.5 704,-477.5 704,-516.123 705.7365,-526.9298 719.545,-563 722.7162,-571.2838 725.7901,-572.1927 730,-580 771.8052,-657.528 814,-671.4189 814,-759.5 814,-927 814,-927 814,-927 814,-936.639 818.125,-945.8253 823.5823,-953.7609"/>
<polygon fill="#000000" stroke="#000000" points="820.9811,-956.1165 829.8949,-961.8432 826.4979,-951.8077 820.9811,-956.1165"/>
<text text-anchor="start" x="719" y="-554" font-family="Helvetica,sans-Serif" font-size="10.00" fill="#000000">not (reconfirm == 1&#39;b1) &#160;&#160;</text>
<text text-anchor="start" x="719" y="-542" font-family="Helvetica,sans-Serif" font-size="10.00" fill="#000000">not (time_out == 1&#39;b0) &#160;&#160;</text>
</g>
<!-- S9_8&#45;&gt;S9_8 -->
<g id="edge85" class="edge transition">
<title>S9_8&#45;&gt;S9_8</title>
<path fill="none" stroke="#000000" d="M1104.0183,-132.8247C1115.888,-133.1883 1126,-131.5801 1126,-128 1126,-125.5387 1121.2205,-124.0094 1114.3762,-123.4121"/>
<polygon fill="#000000" stroke="#000000" points="1114.0957,-119.9049 1104.0183,-123.1753 1113.9356,-126.903 1114.0957,-119.9049"/>
<text text-anchor="start" x="1126" y="-137" font-family="Helvetica,sans-Serif" font-size="10.00" fill="#000000">not (din == 3&#39;d1) &#160;&#160;</text>
<text text-anchor="start" x="1126" y="-125" font-family="Helvetica,sans-Serif" font-size="10.00" fill="#000000">not (din == 3&#39;d5) &#160;&#160;</text>
<text text-anchor="start" x="1126" y="-113" font-family="Helvetica,sans-Serif" font-size="10.00" fill="#000000">time_out == 1&#39;b0 &#160;&#160;</text>
</g>
<!-- S9_8&#45;&gt;S9_9 -->
<g id="edge83" class="edge transition">
<title>S9_8&#45;&gt;S9_9</title>
<path fill="none" stroke="#000000" d="M1048.6897,-109.8241C1042.9174,-104.9326 1037.3302,-99.2442 1033.199,-93 1027.1059,-83.7904 1023.1283,-72.3837 1020.5517,-62.0618"/>
<polygon fill="#000000" stroke="#000000" points="1023.9576,-61.2528 1018.4155,-52.2232 1017.117,-62.7381 1023.9576,-61.2528"/>
<text text-anchor="start" x="1033" y="-84" font-family="Helvetica,sans-Serif" font-size="10.00" fill="#000000">din == 3&#39;d1 &#160;&#160;</text>
<text text-anchor="start" x="1033" y="-72" font-family="Helvetica,sans-Serif" font-size="10.00" fill="#000000">time_out == 1&#39;b0 &#160;&#160;</text>
</g>
<!-- S9_13 -->
<g id="node28" class="node state regular">
<title>S9_13</title>
<polygon fill="#ffffff" fill-opacity="0.003922" stroke="transparent" stroke-width="2" points="1428,-52 1372,-52 1372,-16 1428,-16 1428,-52"/>
<text text-anchor="start" x="1382.657" y="-30.2" font-family="Helvetica,sans-Serif" font-size="12.00" fill="#000000">S9_13</text>
<path fill="none" stroke="#000000" stroke-width="2" d="M1384.3333,-17C1384.3333,-17 1415.6667,-17 1415.6667,-17 1421.3333,-17 1427,-22.6667 1427,-28.3333 1427,-28.3333 1427,-39.6667 1427,-39.6667 1427,-45.3333 1421.3333,-51 1415.6667,-51 1415.6667,-51 1384.3333,-51 1384.3333,-51 1378.6667,-51 1373,-45.3333 1373,-39.6667 1373,-39.6667 1373,-28.3333 1373,-28.3333 1373,-22.6667 1378.6667,-17 1384.3333,-17"/>
</g>
<!-- S9_8&#45;&gt;S9_13 -->
<g id="edge84" class="edge transition">
<title>S9_8&#45;&gt;S9_13</title>
<path fill="none" stroke="#000000" d="M1104.1861,-119.8226C1162.3503,-102.9478 1295.7355,-64.2496 1361.6677,-45.1211"/>
<polygon fill="#000000" stroke="#000000" points="1363.0196,-48.3733 1371.6484,-42.2255 1361.0691,-41.6505 1363.0196,-48.3733"/>
<text text-anchor="start" x="1278" y="-84" font-family="Helvetica,sans-Serif" font-size="10.00" fill="#000000">din == 3&#39;d5 &#160;&#160;</text>
<text text-anchor="start" x="1278" y="-72" font-family="Helvetica,sans-Serif" font-size="10.00" fill="#000000">time_out == 1&#39;b0 &#160;&#160;</text>
</g>
<!-- S9_9&#45;&gt;IDLE -->
<g id="edge87" class="edge transition">
<title>S9_9&#45;&gt;IDLE</title>
<path fill="none" stroke="#000000" d="M987.7637,-34.9717C906.5288,-38.1396 678,-49.8222 678,-81 678,-477.5 678,-477.5 678,-477.5 678,-517.4858 691.9056,-525.5806 706,-563 707.0462,-565.7776 790,-756.5319 790,-759.5 790,-927 790,-927 790,-927 790,-942.0192 800.6911,-953.8024 813.0474,-962.4054"/>
<polygon fill="#000000" stroke="#000000" points="811.4229,-965.5175 821.7569,-967.8539 815.1354,-959.5831 811.4229,-965.5175"/>
<text text-anchor="middle" x="687.3895" y="-501" font-family="Helvetica,sans-Serif" font-size="10.00" fill="#000000"> </text>
</g>
<!-- S9_10&#45;&gt;IDLE -->
<g id="edge88" class="edge transition">
<title>S9_10&#45;&gt;IDLE</title>
<path fill="none" stroke="#000000" d="M1342.9765,-334.1704C1357.2505,-348.7004 1376.4347,-370.1851 1389,-392 1411.0997,-430.3679 1414.5609,-442.3519 1422,-486 1424.6882,-501.7726 1429.0955,-507.6594 1422,-522 1403.1569,-560.0837 1364.8431,-541.9163 1346,-580 1338.9045,-594.3406 1335.2929,-604.1106 1346,-616 1358.1116,-629.4491 1492.9937,-622.8817 1508,-633 1575.1401,-678.2707 1563,-722.6504 1563,-739 1563,-927 1563,-927 1563,-927 1563,-927.0916 1530.873,-946.8871 1527,-948 1465.6837,-965.6192 1022.3724,-976.3519 888.3061,-979.2208"/>
<polygon fill="#000000" stroke="#000000" points="888.0319,-975.7257 878.1082,-979.4366 888.18,-982.7242 888.0319,-975.7257"/>
<text text-anchor="middle" x="1537.3895" y="-642" font-family="Helvetica,sans-Serif" font-size="10.00" fill="#000000"> </text>
</g>
<!-- S9_11&#45;&gt;IDLE -->
<g id="edge89" class="edge transition">
<title>S9_11&#45;&gt;IDLE</title>
<path fill="none" stroke="#000000" d="M1075.8694,-223.9685C1006.7156,-229.1832 834,-244.645 834,-269 834,-530.5 834,-530.5 834,-530.5 834,-632.2933 838,-657.7067 838,-759.5 838,-927 838,-927 838,-927 838,-935.1341 839.3611,-943.801 841.1666,-951.719"/>
<polygon fill="#000000" stroke="#000000" points="837.8267,-952.7837 843.7188,-961.589 844.6038,-951.0312 837.8267,-952.7837"/>
<text text-anchor="middle" x="836.3895" y="-595" font-family="Helvetica,sans-Serif" font-size="10.00" fill="#000000"> </text>
</g>
<!-- S9_12&#45;&gt;IDLE -->
<g id="edge90" class="edge transition">
<title>S9_12&#45;&gt;IDLE</title>
<path fill="none" stroke="#000000" d="M1554.0423,-134.161C1586.6325,-142.1505 1636,-157.192 1636,-175 1636,-477.5 1636,-477.5 1636,-477.5 1636,-543.6282 1659,-558.3718 1659,-624.5 1659,-927 1659,-927 1659,-927 1659,-955.2528 1627.007,-944.2813 1599,-948 1459.4058,-966.5351 1020.6517,-976.5993 888.2194,-979.27"/>
<polygon fill="#000000" stroke="#000000" points="888.0743,-975.7721 878.1461,-979.4707 888.2139,-982.7707 888.0743,-975.7721"/>
<text text-anchor="middle" x="1651.3895" y="-548" font-family="Helvetica,sans-Serif" font-size="10.00" fill="#000000"> </text>
</g>
<!-- S9_13&#45;&gt;IDLE -->
<g id="edge91" class="edge transition">
<title>S9_13&#45;&gt;IDLE</title>
<path fill="none" stroke="#000000" d="M1428.2299,-35.7809C1499.4877,-40.6522 1681,-55.5578 1681,-81 1681,-477.5 1681,-477.5 1681,-477.5 1681,-519.2872 1683,-529.7128 1683,-571.5 1683,-927 1683,-927 1683,-927 1683,-955.2528 1651.0095,-944.2998 1623,-948 1478.6041,-967.0754 1024.0794,-976.797 888.5261,-979.3228"/>
<polygon fill="#000000" stroke="#000000" points="888.1614,-975.8289 878.2275,-979.5123 888.2902,-982.8277 888.1614,-975.8289"/>
<text text-anchor="middle" x="1682.3895" y="-501" font-family="Helvetica,sans-Serif" font-size="10.00" fill="#000000"> </text>
</g>
</g>
</svg>
