<?xml version="1.0" encoding="UTF-8" standalone="no"?>
<!DOCTYPE svg PUBLIC "-//W3C//DTD SVG 1.1//EN"
 "http://www.w3.org/Graphics/SVG/1.1/DTD/svg11.dtd">
<!-- Generated by graphviz version 2.40.1 (20161225.0304)
 -->
<!-- Title: state transitions Pages: 1 -->
<svg width="874pt" height="388pt"
 viewBox="0.00 0.00 874.00 388.00" xmlns="http://www.w3.org/2000/svg" xmlns:xlink="http://www.w3.org/1999/xlink">
<g id="graph0" class="graph" transform="scale(1 1) rotate(0) translate(4 384)">
<title>state transitions</title>
<polygon fill="#ffffff" stroke="transparent" points="-4,4 -4,-384 870,-384 870,4 -4,4"/>
<g id="clust1" class="cluster state regular">
<title>cluster_next_state</title>
<path fill="none" stroke="#000000" stroke-width="2" d="M20,-8C20,-8 846,-8 846,-8 852,-8 858,-14 858,-20 858,-20 858,-360 858,-360 858,-366 852,-372 846,-372 846,-372 20,-372 20,-372 14,-372 8,-366 8,-360 8,-360 8,-20 8,-20 8,-14 14,-8 20,-8"/>
<text text-anchor="start" x="405.8208" y="-353.2" font-family="Helvetica,sans-Serif" font-size="12.00" fill="#000000">next_state</text>
</g>
<!-- next_state -->
<!-- INIT -->
<g id="node2" class="node state regular">
<title>INIT</title>
<polygon fill="#ffffff" fill-opacity="0.003922" stroke="transparent" stroke-width="2" points="471,-334 415,-334 415,-298 471,-298 471,-334"/>
<text text-anchor="start" x="431.6684" y="-312.2" font-family="Helvetica,sans-Serif" font-size="12.00" fill="#000000">INIT</text>
<path fill="none" stroke="#000000" stroke-width="2" d="M427.3333,-299C427.3333,-299 458.6667,-299 458.6667,-299 464.3333,-299 470,-304.6667 470,-310.3333 470,-310.3333 470,-321.6667 470,-321.6667 470,-327.3333 464.3333,-333 458.6667,-333 458.6667,-333 427.3333,-333 427.3333,-333 421.6667,-333 416,-327.3333 416,-321.6667 416,-321.6667 416,-310.3333 416,-310.3333 416,-304.6667 421.6667,-299 427.3333,-299"/>
</g>
<!-- IDLE -->
<g id="node3" class="node state regular">
<title>IDLE</title>
<polygon fill="#ffffff" fill-opacity="0.003922" stroke="transparent" stroke-width="2" points="471,-246 415,-246 415,-210 471,-210 471,-246"/>
<text text-anchor="start" x="429.6644" y="-224.2" font-family="Helvetica,sans-Serif" font-size="12.00" fill="#000000">IDLE</text>
<path fill="none" stroke="#000000" stroke-width="2" d="M427.3333,-211C427.3333,-211 458.6667,-211 458.6667,-211 464.3333,-211 470,-216.6667 470,-222.3333 470,-222.3333 470,-233.6667 470,-233.6667 470,-239.3333 464.3333,-245 458.6667,-245 458.6667,-245 427.3333,-245 427.3333,-245 421.6667,-245 416,-239.3333 416,-233.6667 416,-233.6667 416,-222.3333 416,-222.3333 416,-216.6667 421.6667,-211 427.3333,-211"/>
</g>
<!-- INIT&#45;&gt;IDLE -->
<g id="edge1" class="edge transition">
<title>INIT&#45;&gt;IDLE</title>
<path fill="none" stroke="#000000" d="M422.1605,-297.8838C415.1606,-289.5719 409.8785,-279.2896 413.221,-269 414.8441,-264.0033 417.3305,-259.1067 420.189,-254.5354"/>
<polygon fill="#000000" stroke="#000000" points="423.1522,-256.4053 426.0156,-246.2047 417.416,-252.3933 423.1522,-256.4053"/>
<text text-anchor="middle" x="414.3895" y="-272" font-family="Helvetica,sans-Serif" font-size="10.00" fill="#000000"> </text>
</g>
<!-- IDLE&#45;&gt;INIT -->
<g id="edge2" class="edge transition">
<title>IDLE&#45;&gt;INIT</title>
<path fill="none" stroke="#000000" d="M443,-246.2103C443,-258.1224 443,-273.9321 443,-287.4917"/>
<polygon fill="#000000" stroke="#000000" points="439.5001,-287.7663 443,-297.7663 446.5001,-287.7664 439.5001,-287.7663"/>
<text text-anchor="start" x="443" y="-272" font-family="Helvetica,sans-Serif" font-size="10.00" fill="#000000">empty_6 == 1&#39;b1 &#160;&#160;</text>
</g>
<!-- IDLE&#45;&gt;INIT -->
<g id="edge3" class="edge transition">
<title>IDLE&#45;&gt;INIT</title>
<path fill="none" stroke="#000000" d="M471.0467,-233.2383C502.8425,-240.5047 548.1725,-255.6892 531,-281 519.7842,-297.5311 499.3923,-306.2545 481.0608,-310.8577"/>
<polygon fill="#000000" stroke="#000000" points="480.1858,-307.4661 471.16,-313.0145 481.6759,-314.3057 480.1858,-307.4661"/>
<text text-anchor="start" x="534" y="-272" font-family="Helvetica,sans-Serif" font-size="10.00" fill="#000000">empty_9 == 1&#39;b1 &#160;&#160;</text>
</g>
<!-- IDLE&#45;&gt;IDLE -->
<g id="edge6" class="edge transition">
<title>IDLE&#45;&gt;IDLE</title>
<path fill="none" stroke="#000000" d="M471.0183,-233.9381C482.888,-234.3856 493,-232.4063 493,-228 493,-224.9707 488.2205,-223.0885 481.3762,-222.3533"/>
<polygon fill="#000000" stroke="#000000" points="481.1128,-218.8446 471.0183,-222.0619 480.9158,-225.8419 481.1128,-218.8446"/>
<text text-anchor="start" x="493" y="-243" font-family="Helvetica,sans-Serif" font-size="10.00" fill="#000000">not (empty_6 == 1&#39;b1) &#160;&#160;</text>
<text text-anchor="start" x="493" y="-231" font-family="Helvetica,sans-Serif" font-size="10.00" fill="#000000">not (empty_9 == 1&#39;b1) &#160;&#160;</text>
<text text-anchor="start" x="493" y="-219" font-family="Helvetica,sans-Serif" font-size="10.00" fill="#000000">not (choose == 3&#39;d1) &#160;&#160;</text>
<text text-anchor="start" x="493" y="-207" font-family="Helvetica,sans-Serif" font-size="10.00" fill="#000000">not (choose == 3&#39;d2) &#160;&#160;</text>
</g>
<!-- S6_0 -->
<g id="node4" class="node state regular">
<title>S6_0</title>
<polygon fill="#ffffff" fill-opacity="0.003922" stroke="transparent" stroke-width="2" points="232,-146 176,-146 176,-110 232,-110 232,-146"/>
<text text-anchor="start" x="189.9924" y="-124.2" font-family="Helvetica,sans-Serif" font-size="12.00" fill="#000000">S6_0</text>
<path fill="none" stroke="#000000" stroke-width="2" d="M188.3333,-111C188.3333,-111 219.6667,-111 219.6667,-111 225.3333,-111 231,-116.6667 231,-122.3333 231,-122.3333 231,-133.6667 231,-133.6667 231,-139.3333 225.3333,-145 219.6667,-145 219.6667,-145 188.3333,-145 188.3333,-145 182.6667,-145 177,-139.3333 177,-133.6667 177,-133.6667 177,-122.3333 177,-122.3333 177,-116.6667 182.6667,-111 188.3333,-111"/>
</g>
<!-- IDLE&#45;&gt;S6_0 -->
<g id="edge4" class="edge transition">
<title>IDLE&#45;&gt;S6_0</title>
<path fill="none" stroke="#000000" d="M414.8808,-217.3444C393.7313,-209.2437 364.0847,-197.7051 338.305,-187 305.4171,-173.3431 268.3878,-157.0032 241.553,-144.9855"/>
<polygon fill="#000000" stroke="#000000" points="242.7106,-141.6687 232.1543,-140.7665 239.8439,-148.0548 242.7106,-141.6687"/>
<text text-anchor="start" x="338" y="-172" font-family="Helvetica,sans-Serif" font-size="10.00" fill="#000000">choose == 3&#39;d1 &#160;&#160;</text>
</g>
<!-- S9_0 -->
<g id="node6" class="node state regular">
<title>S9_0</title>
<polygon fill="#ffffff" fill-opacity="0.003922" stroke="transparent" stroke-width="2" points="670,-146 614,-146 614,-110 670,-110 670,-146"/>
<text text-anchor="start" x="627.9924" y="-124.2" font-family="Helvetica,sans-Serif" font-size="12.00" fill="#000000">S9_0</text>
<path fill="none" stroke="#000000" stroke-width="2" d="M626.3333,-111C626.3333,-111 657.6667,-111 657.6667,-111 663.3333,-111 669,-116.6667 669,-122.3333 669,-122.3333 669,-133.6667 669,-133.6667 669,-139.3333 663.3333,-145 657.6667,-145 657.6667,-145 626.3333,-145 626.3333,-145 620.6667,-145 615,-139.3333 615,-133.6667 615,-133.6667 615,-122.3333 615,-122.3333 615,-116.6667 620.6667,-111 626.3333,-111"/>
</g>
<!-- IDLE&#45;&gt;S9_0 -->
<g id="edge5" class="edge transition">
<title>IDLE&#45;&gt;S9_0</title>
<path fill="none" stroke="#000000" d="M471.0447,-223.5893C499.8715,-218.172 545.3184,-207.1207 580,-187 595.0765,-178.2533 609.3542,-165.1344 620.3996,-153.4867"/>
<polygon fill="#000000" stroke="#000000" points="622.9887,-155.8418 627.1671,-146.1057 617.8292,-151.1111 622.9887,-155.8418"/>
<text text-anchor="start" x="610" y="-172" font-family="Helvetica,sans-Serif" font-size="10.00" fill="#000000">choose == 3&#39;d2 &#160;&#160;</text>
</g>
<!-- S6_0&#45;&gt;IDLE -->
<g id="edge7" class="edge transition">
<title>S6_0&#45;&gt;IDLE</title>
<path fill="none" stroke="#000000" d="M175.6389,-129.6409C123.0151,-133.6703 18.7478,-146.851 54.879,-187 78.0371,-212.7333 311.5834,-223.5099 404.8382,-226.8099"/>
<polygon fill="#000000" stroke="#000000" points="404.8606,-230.3126 414.975,-227.1585 405.1013,-223.3168 404.8606,-230.3126"/>
<text text-anchor="start" x="54" y="-172" font-family="Helvetica,sans-Serif" font-size="10.00" fill="#000000">reconfirm == 1&#39;b1 &#160;&#160;</text>
</g>
<!-- S6_0&#45;&gt;IDLE -->
<g id="edge10" class="edge transition">
<title>S6_0&#45;&gt;IDLE</title>
<path fill="none" stroke="#000000" d="M180.9885,-146.0288C168.136,-158.2539 156.695,-174.4155 167.545,-187 182.8163,-204.7126 332.352,-219.0713 404.4751,-225.028"/>
<polygon fill="#000000" stroke="#000000" points="404.2786,-228.5234 414.5293,-225.8452 404.8458,-221.5464 404.2786,-228.5234"/>
<text text-anchor="start" x="167" y="-178" font-family="Helvetica,sans-Serif" font-size="10.00" fill="#000000">not (reconfirm == 1&#39;b1) &#160;&#160;</text>
<text text-anchor="start" x="167" y="-166" font-family="Helvetica,sans-Serif" font-size="10.00" fill="#000000">not (time_out == 1&#39;b0) &#160;&#160;</text>
</g>
<!-- S6_0&#45;&gt;S6_0 -->
<g id="edge9" class="edge transition">
<title>S6_0&#45;&gt;S6_0</title>
<path fill="none" stroke="#000000" d="M232.0183,-132.8247C243.888,-133.1883 254,-131.5801 254,-128 254,-125.5387 249.2205,-124.0094 242.3762,-123.4121"/>
<polygon fill="#000000" stroke="#000000" points="242.0957,-119.9049 232.0183,-123.1753 241.9356,-126.903 242.0957,-119.9049"/>
<text text-anchor="start" x="254" y="-131" font-family="Helvetica,sans-Serif" font-size="10.00" fill="#000000">not (count &gt;= 5&#39;d6) &#160;&#160;</text>
<text text-anchor="start" x="254" y="-119" font-family="Helvetica,sans-Serif" font-size="10.00" fill="#000000">time_out == 1&#39;b0 &#160;&#160;</text>
</g>
<!-- S6_1 -->
<g id="node5" class="node state regular">
<title>S6_1</title>
<polygon fill="#ffffff" fill-opacity="0.003922" stroke="transparent" stroke-width="2" points="396,-52 340,-52 340,-16 396,-16 396,-52"/>
<text text-anchor="start" x="353.9924" y="-30.2" font-family="Helvetica,sans-Serif" font-size="12.00" fill="#000000">S6_1</text>
<path fill="none" stroke="#000000" stroke-width="2" d="M352.3333,-17C352.3333,-17 383.6667,-17 383.6667,-17 389.3333,-17 395,-22.6667 395,-28.3333 395,-28.3333 395,-39.6667 395,-39.6667 395,-45.3333 389.3333,-51 383.6667,-51 383.6667,-51 352.3333,-51 352.3333,-51 346.6667,-51 341,-45.3333 341,-39.6667 341,-39.6667 341,-28.3333 341,-28.3333 341,-22.6667 346.6667,-17 352.3333,-17"/>
</g>
<!-- S6_0&#45;&gt;S6_1 -->
<g id="edge8" class="edge transition">
<title>S6_0&#45;&gt;S6_1</title>
<path fill="none" stroke="#000000" d="M232.1926,-111.8408C259.4984,-96.19 301.0563,-72.3702 331.0074,-55.2031"/>
<polygon fill="#000000" stroke="#000000" points="332.9659,-58.1147 339.9013,-50.1053 329.4849,-52.0416 332.9659,-58.1147"/>
<text text-anchor="start" x="306" y="-84" font-family="Helvetica,sans-Serif" font-size="10.00" fill="#000000">count &gt;= 5&#39;d6 &#160;&#160;</text>
<text text-anchor="start" x="306" y="-72" font-family="Helvetica,sans-Serif" font-size="10.00" fill="#000000">time_out == 1&#39;b0 &#160;&#160;</text>
</g>
<!-- S6_1&#45;&gt;IDLE -->
<g id="edge11" class="edge transition">
<title>S6_1&#45;&gt;IDLE</title>
<path fill="none" stroke="#000000" d="M396.0519,-46.6275C408.7649,-54.4323 421,-65.8732 421,-81 421,-175 421,-175 421,-175 421,-183.641 423.5254,-192.5106 426.8649,-200.462"/>
<polygon fill="#000000" stroke="#000000" points="423.7696,-202.1029 431.2271,-209.6285 430.0903,-199.0948 423.7696,-202.1029"/>
<text text-anchor="middle" x="422.3895" y="-125" font-family="Helvetica,sans-Serif" font-size="10.00" fill="#000000"> </text>
</g>
<!-- S9_0&#45;&gt;IDLE -->
<g id="edge12" class="edge transition">
<title>S9_0&#45;&gt;IDLE</title>
<path fill="none" stroke="#000000" d="M670.1481,-141.0144C678.7533,-146.5018 687.2045,-153.7896 692,-163 696.926,-172.4611 698.9026,-178.8679 692,-187 678.5106,-202.8921 547.4583,-217.8151 481.0984,-224.4266"/>
<polygon fill="#000000" stroke="#000000" points="480.6415,-220.9545 471.0314,-225.4152 481.3256,-227.921 480.6415,-220.9545"/>
<text text-anchor="start" x="696" y="-172" font-family="Helvetica,sans-Serif" font-size="10.00" fill="#000000">reconfirm == 1&#39;b1 &#160;&#160;</text>
</g>
<!-- S9_0&#45;&gt;IDLE -->
<g id="edge15" class="edge transition">
<title>S9_0&#45;&gt;IDLE</title>
<path fill="none" stroke="#000000" d="M613.8379,-130.2057C569.7809,-134.1994 487.3329,-144.03 465.545,-163 454.8829,-172.2832 449.2606,-186.8767 446.2971,-199.8859"/>
<polygon fill="#000000" stroke="#000000" points="442.8319,-199.3762 444.4449,-209.8476 449.714,-200.6559 442.8319,-199.3762"/>
<text text-anchor="start" x="465" y="-178" font-family="Helvetica,sans-Serif" font-size="10.00" fill="#000000">not (reconfirm == 1&#39;b1) &#160;&#160;</text>
<text text-anchor="start" x="465" y="-166" font-family="Helvetica,sans-Serif" font-size="10.00" fill="#000000">not (time_out == 1&#39;b0) &#160;&#160;</text>
</g>
<!-- S9_0&#45;&gt;S9_0 -->
<g id="edge14" class="edge transition">
<title>S9_0&#45;&gt;S9_0</title>
<path fill="none" stroke="#000000" d="M670.0183,-132.8247C681.888,-133.1883 692,-131.5801 692,-128 692,-125.5387 687.2205,-124.0094 680.3762,-123.4121"/>
<polygon fill="#000000" stroke="#000000" points="680.0957,-119.9049 670.0183,-123.1753 679.9356,-126.903 680.0957,-119.9049"/>
<text text-anchor="start" x="692" y="-131" font-family="Helvetica,sans-Serif" font-size="10.00" fill="#000000">not (count &gt;= 5&#39;d9) &#160;&#160;</text>
<text text-anchor="start" x="692" y="-119" font-family="Helvetica,sans-Serif" font-size="10.00" fill="#000000">time_out == 1&#39;b0 &#160;&#160;</text>
</g>
<!-- S9_1 -->
<g id="node7" class="node state regular">
<title>S9_1</title>
<polygon fill="#ffffff" fill-opacity="0.003922" stroke="transparent" stroke-width="2" points="785,-52 729,-52 729,-16 785,-16 785,-52"/>
<text text-anchor="start" x="742.9924" y="-30.2" font-family="Helvetica,sans-Serif" font-size="12.00" fill="#000000">S9_1</text>
<path fill="none" stroke="#000000" stroke-width="2" d="M741.3333,-17C741.3333,-17 772.6667,-17 772.6667,-17 778.3333,-17 784,-22.6667 784,-28.3333 784,-28.3333 784,-39.6667 784,-39.6667 784,-45.3333 778.3333,-51 772.6667,-51 772.6667,-51 741.3333,-51 741.3333,-51 735.6667,-51 730,-45.3333 730,-39.6667 730,-39.6667 730,-28.3333 730,-28.3333 730,-22.6667 735.6667,-17 741.3333,-17"/>
</g>
<!-- S9_0&#45;&gt;S9_1 -->
<g id="edge13" class="edge transition">
<title>S9_0&#45;&gt;S9_1</title>
<path fill="none" stroke="#000000" d="M664.1732,-109.8759C682.0711,-95.2462 707.4247,-74.5224 727.1137,-58.4288"/>
<polygon fill="#000000" stroke="#000000" points="729.3674,-61.1072 734.8949,-52.0685 724.9373,-55.6873 729.3674,-61.1072"/>
<text text-anchor="start" x="713" y="-84" font-family="Helvetica,sans-Serif" font-size="10.00" fill="#000000">count &gt;= 5&#39;d9 &#160;&#160;</text>
<text text-anchor="start" x="713" y="-72" font-family="Helvetica,sans-Serif" font-size="10.00" fill="#000000">time_out == 1&#39;b0 &#160;&#160;</text>
</g>
<!-- S9_1&#45;&gt;IDLE -->
<g id="edge16" class="edge transition">
<title>S9_1&#45;&gt;IDLE</title>
<path fill="none" stroke="#000000" d="M785.0731,-50.1669C791.4762,-55.3081 797.438,-61.615 801,-69 823.9438,-116.568 824.8856,-150.2057 787,-187 765.359,-208.0177 566.3492,-221.2743 481.2772,-226.0254"/>
<polygon fill="#000000" stroke="#000000" points="481.0414,-222.533 471.2481,-226.5755 481.4248,-229.5225 481.0414,-222.533"/>
<text text-anchor="middle" x="818.3895" y="-125" font-family="Helvetica,sans-Serif" font-size="10.00" fill="#000000"> </text>
</g>
</g>
</svg>
